<?xml version="1.0" encoding="UTF-8"?>
<svg id="Capa_2" data-name="Capa 2" xmlns="http://www.w3.org/2000/svg" xmlns:xlink="http://www.w3.org/1999/xlink" viewBox="0 0 2675.68 839.35">
  <defs>
    <style>
      .cls-1 {
        clip-path: url(#clippath);
      }

      .cls-2 {
        fill: #fff;
      }

      .cls-3 {
        fill: #e5ecfe;
      }

      .cls-4 {
        fill: #97b4fa;
      }

      .cls-5 {
        fill: #c8bffb;
      }

      .cls-6 {
        opacity: .38;
      }
    </style>
    <clipPath id="clippath">
      <path class="cls-4" d="M1262.2,592.69c-38.56-2.5-57.68-4.02-95.69-5.1l4.33-79.36c28.49,2.45,56.9,2.69,96.33,4.09-2.59,21.92-4.56,49.48-4.97,80.37Z"/>
    </clipPath>
  </defs>
  <g id="illustration">
    <g>
      <g>
        <path class="cls-4" d="M2519.19,441.57c-6.44,23.76-16.7,45.13-30.49,64.27-22.16,30.79-53.45,55.79-92.7,75.55-8.21,4.14-16.77,8.04-25.67,11.72-4.18,1.73-8.42,3.42-12.75,5.05-27.54,10.39-58.07,18.81-91.3,25.37-35.19,6.97-73.4,11.87-114.31,14.86-8.09,.59-23.72,1.56-44.08,1.36-8.87-.08-18.65-.39-29.09-1.06-10.18-.65-20.98-1.63-32.21-3.07-.73-.09-3.66-.48-4.38-.59-13.65-1.86-27.86-4.44-42.25-7.88-6.38-1.55-12.8-3.26-19.23-5.15-30.86-9.14-57.42-21.62-79.84-36.7-234.89-157.74-17.96-598.5,433.36-451.27,76.93,25.1,178.67,108.89,190.51,204.47,4.75,38.42,2.71,72.68-5.57,103.06Z"/>
        <path d="M2555.04,321.19v.43c-.35,.01-.72,.01-1.08,.01-65.63,0-119.24-47.83-123.91-109.91l55.14,1.76c5.12,31.66,33.52,55.37,67.88,55.37,.3,0,.61,0,.9-.01,.49,22.46,1.06,51.2,1.06,52.35Z"/>
        <path d="M2259.73,163.69c0,56.26-29.23,69.86-29.23,121.37,0,1.9,.05,3.76,.16,5.6h0c-17.61-2.89-34.9-3.48-50.13-3.15h-.01c-4.79-10.68-9.63-24.33-14.25-42.58,45.32-8.6,71.7-42.98,67.25-94.68-4.36-50.87-42.71-69.83-83.43-65.27,.11,1.91,.15,4.15,.18,6.84,.52,46.94-35.36,39.99-50.5,61.82-3.66-1.15-7.37-1.77-10.49-1.77-16.19,0-26.57,12.29-26.57,24.59,0,9.74,8.56,18.65,18.15,23.97-2.05,24.58-9.22,66.15-15.33,97.83-35.02,6.69-73.45,19.15-95.88,42.8-15.17,15.98-26.02,35.05-34.75,60.69h-.01c-.58,.03-1.09,.04-1.56,.04-28.32,0-55.5-27.61-55.5-52.72,0-16.47,8.64-37.2,27.86-48.76-3.28-6.74-5.68-13.71-5.68-20.75,0-33.84,30.82-47.81,64.65-51.32-1.46-4.4-2.43-9.79-2.43-17.03,0-31.47,19.8-46.07,47.93-48.55,30.99-70.26,76.3-127.83,153.26-127.83,58.77,0,96.31,65.35,96.31,128.87Z"/>
        <path class="cls-2" d="M2552.76,79.87c-78.3,0-123.05,58.47-123.05,123.03,0,2.98,.11,5.92,.34,8.83l55.14,1.76c-.54-3.34-.82-6.78-.82-10.29,0-35.7,24.74-68.02,68.03-68.02,10.5,0,20.14,1.93,28.64,5.4,.29,.12,.58,.25,.87,.38,6.61-17.65,12.63-34.98,19.5-52.54-14.58-5.51-30.93-8.55-48.66-8.55Z"/>
        <path class="cls-5" d="M2610.84,104.47c-.23-.09-.47-.17-.7-.26-6.19,15.82-11.61,31.41-17.55,47.3,20.88,8.88,33.89,28.29,33.89,51.17,0,33.71-22.49,63.52-59.05,63.95,.44,20.22,.96,47.39,.96,47.51,66.42-.51,107.29-54.54,107.29-115.67,0-42.66-25-78.65-64.84-94Z"/>
        <path class="cls-3" d="M2660.27,360.95c-.56-1.47-1.84-2.55-3.38-2.85-3.47,0-6.55,.71-9.33,1.95-2.33-2.95-5.57-5.08-9.75-5.91-4.89,0-9,1.42-12.59,3.71-1.8-1.63-4.41-3-9.01-3-26.1,0-29.96,40.3-51.38,40.3-2.85,0-5.39-.85-7.77-2.48-8.88-6.04-20.34-6.96-30.07-2.39-10.39,4.87-21.46,10.2-32.74,15.86,11.39,16.1,22.71,32.02,33.72,48.13,20.66-21.54,49.1-36.74,94.16-36.74,1.53,0,3.08,0,4.63,.05,5.98,.11,11.76-2.18,16.04-6.37,4.27-4.19,6.69-9.93,6.69-15.92,0-1.42-.04-2.84-.04-4.26,0-6.36,2.39-15.37,10.21-25.7,.95-1.25,1.18-2.91,.62-4.38Z"/>
        <path class="cls-3" d="M2052.45,651.84c3.8-3.8,1.27-10.14-1.27-12.67-2.53-1.27-5.07-6.33-8.87-2.53,0-6.33-5.07-12.67-8.87-13.94-20.27-3.8-38.01,7.61-58.28,12.67-45.17,8.69-55.39-54.37-98.92-40.82-6.61,2.07-7.72,11.09-1.83,14.75,38.02,23.6,31.7,91.44,95.67,91.44,14.16,0,34.5-7.46,50.7-18.05,.59,.17,1.21,.34,1.84,.52,5.8-5.58,11.8-11.08,18.42-16.17,5.07-3.8,6.33-10.14,11.4-15.2Z"/>
        <path class="cls-3" d="M2075.25,328.77c34.91,23.67,81.08,17.74,108.96-15.2,7.37-9.22,.67-17.09-3.04-26.07-.21,0-.65,0-.65,0-4.79-10.68-9.63-24.33-14.25-42.58,45.32-8.6,71.7-42.98,67.25-94.68-4.36-50.87-42.71-69.83-83.43-65.27,.11,1.91,.15,4.15,.18,6.84,.52,46.94-35.36,39.99-50.5,61.82-3.66-1.15-7.37-1.77-10.49-1.77-16.19,0-26.57,12.29-26.57,24.59,0,9.74,8.56,18.65,18.15,23.97-2.05,24.58-9.22,66.15-15.33,97.83-.63,.12-1.26,.25-1.88,.37-.66,11.36,.35,22.5,11.61,30.14Z"/>
        <path class="cls-2" d="M2519.19,441.57c-8.21-11.81-16.57-23.57-24.96-35.42-.12,.06-.25,.12-.38,.19-38.4,20.09-79.95,42.63-104.51,64.25-15.52-43.44-45.5-99.64-59.19-117.81-23.63-39.62-62.27-55.99-99.5-62.1-17.36-2.85-34.42-3.47-49.5-3.17,3.72,8.98,10.43,16.85,3.04,26.07-27.86,32.95-74.05,38.87-108.96,15.2-11.25-7.63-12.27-18.78-11.61-30.14-34.5,6.77-71.96,19.21-94,42.43-15.16,15.97-26.02,35.05-34.75,60.69h-.01c-13.75,40.38-22.26,97.04-33.99,183.57-.4,2.88-.79,5.78-1.19,8.72,1.98,1,3.93,2.09,5.79,3.33,22.8,12.67,36.74,44.35,69.68,38.01,8.59-2.15,16.73-5.42,24.79-8.21,10.96-3.8,21.8-6.66,33.49-4.47,3.99,1.34,8.87,7.82,8.87,13.94,1.28-1.28,3.86-.89,5.49-.08,70.26,9,149.27,1.88,218.47-11.83,2.09-38.14,24.68-57.59,25.77-108.13h.01c20.21,29.1,44.34,66.11,78.26,76.53,5.97,1.84,12.24,2.85,18.85,2.85,84.09,0,88.6-89.08,138.46-141.37,.11-.12,.21-.22,.32-.33-2.9-4.25-5.83-8.48-8.76-12.7Zm-368.81,102.46c-25.12,49.86-83.47,71.01-131.61,46.76-.88-.44-1.76-.91-2.63-1.38-17.48-9.39-31.87-23.06-41.33-39.52l30.77-22.86c3.56,7.62,8.76,14.42,15.18,20.06,4.28,3.8,9.12,7.06,14.39,9.71,29.87,15.04,66.05,1.93,81.65-29.01,13.65-27.11,5.32-54.73-14.62-72.5l30.42-22.59c27.88,28.64,38.42,70.35,17.79,111.31Z"/>
        <path d="M2156.02,158.81c-1.25,2.45-1.99,5.44-1.99,8.36,0,4.65,2.13,9.42,5.69,9.42,4.08,0,6.31-7.78,6.31-12.21,0-5.86-3.08-8.43-5.62-8.43-.59,0-1.2,.13-1.83,.43-1.11,.53-2.01,1.35-2.56,2.42Z"/>
        <path d="M2202.19,154.51c-.99,2.17-1.5,4.8-1.38,7.33,.19,4.03,2.23,8.08,5.31,7.94,3.53-.16,5.15-7,4.97-10.84-.24-5.08-3.01-7.18-5.21-7.08-.51,.02-1.04,.16-1.57,.45-.94,.5-1.69,1.25-2.12,2.2Z"/>
        <g>
          <path class="cls-2" d="M2136.5,507.51c25.16-21.04,52.82-39.66,81.23-54.87l-13.56,.25c-25.07,14.26-49.38,31.06-71.74,49.76-10.29,8.61-19.82,17.34-28.28,25.84l.21,8.8c8.89-9.25,19.6-19.29,32.14-29.78Z"/>
          <path class="cls-2" d="M2209.84,559.21c4.1-7.68,7.02-15.36,7.02-21.69,0-8.18-3.83-13.26-10-13.26-9.62,0-25.69,14.24-36.06,36.38l7.18-.26c9.59-18.65,22.99-29.78,28.89-29.78,3.3,0,3.66,4.84,3.66,6.92,0,5.76-3.32,13.67-8.09,21.96l7.41-.27Z"/>
          <path class="cls-2" d="M2186.87,504.56c-19.89,15.94-33.18,35.01-39.75,56.95l6.66-.24c10.36-32.4,35.36-54.61,65.03-69.84,.01-2.52,.03-4.85,.06-7.02-11.99,5.96-22.67,12.68-32,20.15Z"/>
          <path class="cls-2" d="M2156.59,453.78l-7.65,.14c-12.53,19.92-27.75,37.09-45.58,41.08l.16,6.46c21.72-4.08,39.11-24.44,53.08-47.69Z"/>
        </g>
        <path d="M2132.59,432.71c27.89,28.65,38.41,70.35,17.79,111.31-25.12,49.87-83.44,70.94-131.61,46.76-.89-.44-1.76-.91-2.63-1.38,3.09-11.96,4.73-24.27,4.73-36.51,0-2.14-.04-4.07-.1-5.8,4.28,3.8,9.12,7.05,14.39,9.71,29.86,15.04,66.06,1.93,81.65-29.01,13.66-27.1,5.32-54.73-14.62-72.5l30.42-22.59Z"/>
      </g>
      <g>
        <path d="M1902.98,571.9c-.09,0-.18,0-.27-.02-1.09-.15-1.86-1.16-1.71-2.25,18.16-132.22,29.32-190.04,67.2-229.95,18.96-19.97,51.18-34.49,95.77-43.15,1.09-.21,2.13,.5,2.34,1.58,.21,1.08-.5,2.13-1.58,2.34-43.76,8.5-75.26,22.62-93.63,41.98-37.07,39.06-48.1,96.43-66.13,227.74-.14,1-1,1.73-1.98,1.73Z"/>
        <path d="M2257.75,295c15.07,4.93,29.53,12,42.26,21.56,6.36,4.78,12.28,10.15,17.59,16.08,5.31,5.93,10.06,12.35,14.21,19.15l-.12-.17c6.68,9.02,12.3,18.53,17.82,28.12,5.52,9.58,10.75,19.32,15.74,29.18,4.99,9.86,9.8,19.81,14.29,29.92,2.25,5.05,4.41,10.15,6.52,15.27l4.54,11.62c.49,1.3,.83,2.65,.62,4.2-.17,1.23-1.3,2.1-2.53,1.93-.46-.06-.87-.26-1.2-.55l-.04-.03c-1.16-1.04-1.77-2.27-2.24-3.55l-4.38-11.5c-2.05-5.08-4.13-10.14-6.33-15.17-4.39-10.04-8.93-20.04-13.72-29.91-4.79-9.87-9.79-19.65-15.06-29.28-5.26-9.61-10.8-19.14-17.11-27.92l-.04-.05s-.05-.08-.08-.12c-3.94-6.64-8.46-12.94-13.61-18.7-5.14-5.76-10.84-11.02-17.02-15.66-6.18-4.64-12.82-8.65-19.75-12.08-6.94-3.43-14.19-6.21-21.59-8.5-1.06-.33-1.65-1.45-1.33-2.5,.33-1.06,1.45-1.65,2.5-1.32h.03Z"/>
        <path d="M2368.71,498.39c-.24,0-.48-.04-.71-.13-1.03-.39-1.55-1.55-1.16-2.58,8.32-21.82,47.32-50.75,115.93-85.97,.98-.51,2.19-.12,2.69,.87,.5,.98,.12,2.19-.87,2.69-66.74,34.27-106.17,63.25-114.02,83.83-.3,.8-1.06,1.29-1.87,1.29Z"/>
        <path d="M2515.29,397.83c-.75,0-1.46-.42-1.8-1.14-.48-1-.06-2.19,.94-2.67,3.98-1.91,7.88-3.76,11.7-5.55,10.34-4.85,22.62-3.88,32.05,2.55,2.11,1.43,4.28,2.13,6.64,2.13,9.13,0,15.03-8.64,21.27-17.79,7.2-10.55,15.36-22.51,30.11-22.51,4.41,0,7.7,1.12,10.35,3.51,.82,.74,.88,2.01,.14,2.82-.74,.82-2,.88-2.82,.14-1.18-1.06-3.26-2.48-7.67-2.48-12.63,0-19.84,10.56-26.81,20.76-6.56,9.6-13.34,19.53-24.58,19.53-3.19,0-6.1-.92-8.89-2.83-8.26-5.63-19.03-6.49-28.1-2.23-3.81,1.79-7.7,3.63-11.67,5.53-.28,.13-.57,.2-.86,.2Z"/>
        <path d="M2064.08,307.82c-.13,0-.26-.01-.39-.04-1.08-.21-1.79-1.26-1.58-2.35,6.6-33.58,14.37-78.21,16.64-103.9-8.93-5.27-18.05-14.41-18.05-25.07,0-13.07,10.69-26.59,28.57-26.59,2.91,0,6.31,.51,9.7,1.45,5.58-7.34,13.45-11.45,21.07-15.42,14.67-7.65,28.54-14.88,28.22-44.06-.03-2.56-.06-4.83-.17-6.75-.06-1.06,.72-1.99,1.77-2.11,23.92-2.68,45.53,2.75,60.84,15.3,14.33,11.75,22.91,29.66,24.81,51.79,2.47,28.77-4.45,53.2-20.01,70.65-15.71,17.63-39.43,27.4-68.59,28.25-1.11,.02-2.03-.84-2.06-1.94-.03-1.1,.84-2.03,1.94-2.06,28.04-.82,50.76-10.13,65.72-26.92,14.81-16.62,21.38-40.01,19.01-67.65-1.83-21.33-9.69-37.82-23.36-49.03-14.07-11.54-33.89-16.7-55.99-14.61,.05,1.53,.07,3.21,.09,5.03,.35,31.63-15.27,39.78-30.37,47.65-7.94,4.14-15.44,8.05-20.49,15.33-.5,.72-1.41,1.03-2.24,.77-3.46-1.08-6.97-1.68-9.89-1.68-15.38,0-24.57,11.49-24.57,22.59,0,9.37,8.85,17.62,17.12,22.22,.69,.38,1.09,1.13,1.02,1.91-2.69,32.27-13.55,88.99-16.81,105.61-.19,.95-1.02,1.61-1.96,1.61Z"/>
        <path d="M2080.42,328.93c8.25,4.84,17.52,8.02,26.98,9.58,4.74,.78,9.51,1.13,14.29,.96,4.8-.17,9.59-.64,14.3-1.58,4.7-.94,9.36-2.16,13.84-3.84,4.48-1.68,8.83-3.69,12.94-6.11,4.11-2.41,7.94-5.26,11.47-8.41l2.58-2.43,3.01-3.25,2.76-3.45,.99-1.54c.83-1.3,2.56-1.67,3.86-.84,1.3,.83,1.67,2.56,.84,3.86-.4,.63-.82,1.28-1.24,1.87l-3.06,3.73-3.31,3.49-2.83,2.6c-3.86,3.36-8.02,6.36-12.45,8.88-4.43,2.52-9.08,4.59-13.85,6.31-4.77,1.72-9.7,2.94-14.67,3.86-4.97,.92-10.02,1.35-15.07,1.46-5.07,.11-10.18-.33-15.14-1.23-9.94-1.78-19.6-5.23-28.3-10.49-.95-.57-1.25-1.8-.68-2.75,.57-.94,1.78-1.24,2.72-.69h.02Z"/>
        <path d="M2183.54,295.87c-.73,0-1.44-.4-1.79-1.1-6.7-13.37-12.4-29.51-17.43-49.35-.27-1.07,.38-2.16,1.45-2.43,1.07-.27,2.16,.38,2.43,1.45,4.95,19.56,10.55,35.44,17.13,48.54,.49,.99,.1,2.19-.89,2.68-.29,.14-.59,.21-.9,.21Z"/>
        <path d="M2017.01,523.04c-.99,0-1.85-.73-1.98-1.74-1.11-8.38-1.62-18.99-1.62-33.38,0-38.61,3.5-53.25,6.31-65.02,.85-3.56,1.65-6.92,2.24-10.55,.18-1.09,1.2-1.83,2.29-1.66,1.09,.18,1.83,1.2,1.66,2.29-.61,3.77-1.43,7.2-2.3,10.84-2.76,11.56-6.2,25.95-6.2,64.09,0,14.21,.5,24.65,1.59,32.85,.14,1.09-.63,2.1-1.72,2.24-.09,.01-.18,.02-.26,.02Z"/>
        <path d="M2266.13,630.05h-.02c-1.1-.01-1.99-.92-1.98-2.02,.22-19.93,5.87-34.39,11.85-49.71,6.95-17.78,14.13-36.17,14.13-65.67,0-38.82-8.72-55.76-18.82-75.37-7.63-14.81-16.27-31.61-21.82-60.39-.21-1.08,.5-2.13,1.59-2.34,1.09-.2,2.13,.5,2.34,1.59,5.44,28.22,13.58,44.03,21.45,59.32,10.33,20.07,19.26,37.41,19.26,77.2,0,30.25-7.32,49-14.4,67.13-5.85,14.96-11.37,29.1-11.58,48.29-.01,1.1-.91,1.98-2,1.98Z"/>
        <path d="M2596.54,392.98c-.62,0-1.23-.29-1.62-.82-.65-.89-.45-2.14,.44-2.79,4.55-3.31,8.33-8.85,12.34-14.71,7.2-10.55,15.37-22.5,30.11-22.5,.13,0,.26,.01,.39,.04,4.42,.87,8.2,3.16,10.94,6.63,.68,.87,.53,2.12-.33,2.81-.87,.68-2.12,.53-2.81-.33-2.13-2.7-4.94-4.43-8.38-5.15-12.51,.11-19.68,10.61-26.61,20.76-4.2,6.16-8.17,11.97-13.29,15.69-.36,.26-.77,.38-1.17,.38Z"/>
        <path d="M2293.71,515.45l11.66,16.31c3.92,5.39,7.9,10.73,12.01,15.93,8.23,10.39,17.15,20.26,27.38,28.4,5.11,4.06,10.55,7.7,16.37,10.49l2.18,1.04,2.23,.93c1.47,.66,3.01,1.12,4.52,1.67,3.07,.94,6.18,1.72,9.34,2.24,3.16,.52,6.36,.81,9.56,.83,1.62,.01,6.52-.16,7.34-.21l4.86-.46c.81-.07,1.62-.15,2.42-.3l4.81-.78c3.16-.72,6.32-1.44,9.39-2.47,12.28-4.1,23.42-11.24,32.47-20.64,9.06-9.42,16.51-20.42,23.23-31.86,6.73-11.46,12.83-23.36,19.38-35.07,6.54-11.71,13.5-23.29,21.65-34.08,.6-.79,1.73-.95,2.52-.35,.79,.59,.95,1.71,.37,2.5h0c-7.81,10.72-14.5,22.23-20.79,33.98-6.29,11.76-12.32,23.72-19.02,35.4-6.69,11.66-14.16,23.12-23.66,33.03-4.74,4.94-10.03,9.43-15.83,13.18-5.8,3.75-12.12,6.69-18.66,8.91-3.28,1.11-6.63,1.89-9.99,2.67l-5.09,.85c-.85,.16-1.7,.25-2.56,.33l-5.13,.5c-.85,.06-1.71,.07-2.57,.1-1.71,.06-3.42,.16-5.14,.15-3.48,0-6.97-.3-10.41-.86-3.44-.56-6.85-1.35-10.14-2.47-1.64-.56-3.3-1.11-4.88-1.82l-2.4-1.01-2.34-1.13c-6.24-3.02-11.96-6.91-17.31-11.17-5.36-4.27-10.27-9.01-14.88-13.99-4.61-4.98-8.92-10.2-13.04-15.53-8.24-10.68-15.66-21.88-23.12-32.96-.62-.92-.37-2.16,.54-2.78,.9-.61,2.12-.38,2.74,.5Z"/>
        <path d="M2543.5,442.56c-.61,0-1.22-.28-1.61-.82-.65-.89-.46-2.14,.43-2.8,21.43-15.76,47.53-23.42,79.79-23.42,1.54,0,3.1,.02,4.67,.05,5.42,.13,10.73-2.01,14.6-5.8,3.87-3.8,6.09-9.08,6.09-14.49,0-.7-.04-3.54-.04-4.26,0-5.87,1.84-15.31,10.62-26.9,.53-.7,.66-1.64,.35-2.46-.3-.78-.94-1.35-1.73-1.56-12.5,.12-19.66,10.61-26.59,20.76-4.2,6.16-8.17,11.97-13.29,15.69-.89,.65-2.14,.45-2.79-.44-.65-.89-.45-2.14,.44-2.79,4.55-3.31,8.33-8.85,12.34-14.71,7.2-10.55,15.36-22.51,30.11-22.51,.13,0,.26,.01,.39,.04,2.24,.44,4.05,1.97,4.86,4.1,.81,2.13,.48,4.48-.9,6.3-8.53,11.28-9.81,20.18-9.81,24.49,0,.7,.04,3.54,.04,4.26,0,6.48-2.66,12.81-7.29,17.35-4.63,4.54-10.97,7.07-17.48,6.95-1.55-.03-3.08-.05-4.6-.05-31.38,0-56.7,7.41-77.42,22.64-.36,.26-.77,.39-1.18,.39Z"/>
        <path d="M2500.33,411.75l29.45,41.43c.82,1.16,.55,2.76-.61,3.58-1.16,.82-2.76,.55-3.58-.61,0-.01-28.55-42.13-28.55-42.13-.62-.91-.38-2.16,.53-2.78,.9-.61,2.12-.39,2.75,.5Z"/>
        <path d="M2430,195.98s-.09,0-.13,0c-1.1-.07-1.94-1.02-1.87-2.12,2.03-31.49,14.61-60.33,35.43-81.19,22.71-22.76,53.6-34.79,89.32-34.79,17.83,0,34.71,3.02,50.16,8.97,1.03,.4,1.54,1.55,1.15,2.59-.4,1.03-1.56,1.55-2.59,1.15-14.99-5.78-31.38-8.71-48.72-8.71-78,0-117.28,58.18-120.76,112.24-.07,1.06-.95,1.87-1.99,1.87Z"/>
        <path d="M2484.66,198.65c-.06,0-.12,0-.17,0-1.1-.09-1.92-1.06-1.82-2.16,1.98-22.96,13.34-41.89,32-53.28,19.62-11.98,44.72-13.64,67.14-4.46,1.02,.42,1.51,1.59,1.09,2.61-.42,1.02-1.59,1.51-2.61,1.09-21.26-8.7-45.01-7.14-63.54,4.17-17.55,10.71-28.24,28.54-30.1,50.21-.09,1.04-.96,1.83-1.99,1.83Z"/>
        <path d="M1985.03,700.65c-.9,0-1.71-.6-1.94-1.51-.27-1.07,.38-2.16,1.45-2.43,23.55-5.92,52.96-23.89,59.21-41.2,.37-1.04,1.52-1.57,2.56-1.2,1.04,.38,1.58,1.52,1.2,2.56-6.89,19.11-37.55,37.58-61.99,43.72-.16,.04-.33,.06-.49,.06Z"/>
        <path d="M1943.33,697.57c-.27,0-.55-.06-.82-.18-19.99-8.96-29.58-27.84-38.86-46.1-8.21-16.14-15.96-31.39-30.29-40.29-3.41-2.12-5.21-5.93-4.7-9.96,.51-4,3.18-7.22,6.99-8.41,4.2-1.31,8.39-1.98,12.47-1.98,18.97,0,28.42,10.72,37.56,21.09,2.69,3.06,5.48,6.22,8.44,8.97,10.19,9.77,16.45,13.01,33.47,13.01,5.53,0,16-3.42,26.11-6.72,11.55-3.77,23.5-7.68,31.04-7.68,10.32,0,16.65,7.58,16.65,13.02,0,9.05-12.62,13.04-33.53,19.66-10.8,3.42-24.24,7.67-38.93,13.61-1.02,.42-2.19-.08-2.6-1.1-.41-1.02,.08-2.19,1.1-2.6,14.84-6.01,28.36-10.28,39.22-13.72,17.84-5.64,30.74-9.72,30.74-15.84,0-3.06-4.47-9.02-12.65-9.02-6.9,0-18.54,3.8-29.79,7.48-10.89,3.56-21.18,6.92-27.35,6.92-18.25,0-25.35-3.7-36.22-14.1-3.08-2.87-5.93-6.1-8.69-9.23-8.95-10.15-17.4-19.73-34.56-19.73-3.67,0-7.47,.6-11.28,1.79-2.32,.73-3.9,2.63-4.21,5.09-.24,1.92,.37,4.52,2.84,6.05,15.28,9.49,23.65,25.95,31.74,41.88,8.96,17.64,18.23,35.88,36.93,44.26,1.01,.45,1.46,1.64,1.01,2.64-.33,.74-1.06,1.18-1.83,1.18Z"/>
        <path d="M1981.41,681.57c-.73,0-1.43-.4-1.78-1.09-.5-.98-.11-2.19,.87-2.69,12.6-6.43,26.48-10.56,38.73-14.2,18.37-5.47,32.88-9.78,32.88-18.51,0-4.83-6.26-8.72-11.44-8.72h-.14c-.12,0-.39,.02-.92,.12-1.08,.2-2.13-.53-2.32-1.61-.2-1.09,.53-2.13,1.61-2.32,.63-.11,1.14-.17,1.57-.18h.21c7.29,0,15.44,5.44,15.44,12.72,0,11.72-15.77,16.41-35.74,22.35-12.08,3.59-25.77,7.67-38.05,13.93-.29,.15-.6,.22-.91,.22Z"/>
        <path d="M2184.41,402.36c-10.46,0-18.96-8.79-18.96-19.6,0-9.82,6.58-17.3,17.62-20.03h0c1.25-.31,2.56-.47,3.88-.47,9.85,0,18.18,8.21,18.18,17.93,0,10.46-8.86,22.17-20.71,22.17Zm-.39-35.75c-9.26,2.29-14.57,8.17-14.57,16.14s5.6,15.6,14.96,15.6,16.71-9.77,16.71-18.17-7.33-13.93-14.18-13.93c-1,0-1.99,.12-2.92,.35Z"/>
        <path d="M2148.87,419.96c-4.55,0-7.99-3.28-7.99-7.64,0-1.59,.48-3.23,1.47-5,.87-1.56,2.38-3.72,5.47-4.48,.73-.18,1.46-.27,2.18-.27,4.59,0,8.19,3.73,8.19,8.49s-4.1,8.9-9.33,8.9Zm1.13-13.39c-.39,0-.81,.05-1.22,.16-1.26,.31-2.08,1.02-2.93,2.54h0c-.65,1.16-.96,2.16-.96,3.05,0,1.81,1.23,3.64,3.99,3.64,3.04,0,5.33-2.11,5.33-4.9,0-2.21-1.57-4.49-4.19-4.49Z"/>
        <path d="M2218.99,360.83c-.6,0-1.19-.27-1.59-.78-.67-.88-.51-2.13,.37-2.8l20.24-15.54-8.78-3.21c-1.04-.38-1.57-1.53-1.19-2.56,.38-1.04,1.53-1.57,2.57-1.19l12.2,4.45c.69,.25,1.18,.85,1.29,1.58,.11,.72-.18,1.45-.76,1.89l-23.13,17.75c-.36,.28-.79,.41-1.22,.41Z"/>
        <path d="M2210.63,134.63c-3.9,1.28-7.66,3-11.11,5.17-3.44,2.17-6.63,4.76-9.16,7.86-2.53,3.09-4.45,6.65-5.29,10.45-.83,3.78-.75,7.89,.77,11.17,1.54,3.31,4.61,5.64,8.17,7.44,1.79,.91,3.68,1.7,5.65,2.67,.99,.48,2,1,3.04,1.72,1.01,.71,2.12,1.68,2.88,3.23,.18,.38,.28,.81,.4,1.23,.06,.44,.13,.81,.11,1.31-.03,1.19-.49,2.02-.91,2.67-.85,1.31-1.82,2.09-2.77,2.82-1.88,1.44-3.82,2.49-5.78,3.48-1.95,.99-3.93,1.85-5.94,2.66-1.01,.4-2.02,.78-3.05,1.15-.52,.18-1.04,.36-1.57,.53-.56,.17-1.03,.33-1.85,.49-1.47,.3-2.9-.66-3.19-2.12-.3-1.47,.66-2.9,2.12-3.19,.04,0,.08-.02,.12-.02h.05c.22-.04,.76-.17,1.2-.3,.47-.13,.94-.28,1.42-.43,.96-.3,1.92-.63,2.87-.98,1.91-.69,3.8-1.46,5.62-2.3,1.81-.84,3.59-1.78,5.09-2.83,.73-.52,1.39-1.12,1.71-1.56,.15-.21,.2-.36,.17-.24,0-.02-.01-.17,0-.25-.05-.08-.02-.18-.08-.27-.13-.36-.58-.89-1.27-1.39-.68-.5-1.52-.98-2.4-1.45-1.77-.93-3.72-1.82-5.64-2.88-1.92-1.06-3.84-2.3-5.56-3.88-1.71-1.57-3.18-3.54-4.13-5.73-.94-2.19-1.31-4.55-1.39-6.83-.02-.57,0-1.14,.05-1.7l.12-1.69c.14-1.12,.35-2.23,.61-3.32,1.04-4.39,3.43-8.32,6.32-11.63,2.89-3.32,6.39-5.98,10.11-8.15,3.72-2.18,7.71-3.85,11.82-5.06,.6-.18,1.22,.17,1.4,.76,.17,.59-.15,1.2-.73,1.39h-.01Z"/>
        <path d="M2139.39,154.13c-.65,0-1.29-.32-1.68-.91-.6-.92-.35-2.14,.56-2.75,.13-.1,.37-.3,.71-.59,9.09-7.7,18.34-12.81,27.5-15.2,1.07-.28,2.16,.36,2.44,1.43,.28,1.07-.36,2.16-1.43,2.44-8.58,2.24-17.3,7.08-25.93,14.38-.58,.5-.85,.72-1.09,.87-.34,.22-.72,.32-1.09,.32Z"/>
        <path d="M2083.78,188.11c-.37,0-.74-.1-1.07-.31-.93-.59-1.21-1.83-.62-2.76,.48-.87,2.08-5.27,2.08-6.27h0c-.19-.01-.54,.03-.92,.07-.6,.07-1.35,.16-2.13,.16-3.51,0-5.78-2.11-5.78-5.38,0-3.54,2.18-7.52,3.83-10.19,.58-.94,1.81-1.23,2.75-.66,.94,.58,1.24,1.81,.66,2.75-.8,1.31-3.24,5.28-3.24,8.1,0,.62,0,1.38,1.78,1.38,.55,0,1.14-.07,1.67-.13,.48-.06,.9-.1,1.29-.1,2.45,0,4.09,1.61,4.09,4,0,2.13-2.22,7.65-2.7,8.41-.38,.6-1.03,.93-1.69,.93Z"/>
        <g>
          <g>
            <path class="cls-2" d="M2306.5,276.16h-20.88c-1.1,0-2-.9-2-2s.9-2,2-2h20.88c1.1,0,2,.9,2,2s-.9,2-2,2Z"/>
            <path class="cls-2" d="M2298.27,285.06c-.46,0-.92-.16-1.3-.48-.84-.72-.94-1.98-.22-2.82,1.78-2.09,4.98-5.49,6.85-7.45-2.13-1.9-3.74-3.66-5.43-5.5-.66-.72-1.34-1.46-2.09-2.25-.76-.8-.73-2.07,.08-2.83,.8-.76,2.07-.73,2.83,.08,.76,.8,1.46,1.56,2.13,2.29,2.09,2.27,3.89,4.23,6.67,6.52,.43,.35,.69,.87,.72,1.43,.03,.56-.17,1.1-.55,1.5-.06,.06-5.66,5.89-8.15,8.81-.4,.46-.96,.7-1.52,.7Z"/>
          </g>
          <path class="cls-2" d="M2326.05,279.5c-.52,0-1.02-.2-1.39-.56-.39-.37-.61-.88-.61-1.42l-.54-60.18c0-1.1,.88-2.01,1.98-2.02h.02c1.1,0,1.99,.88,2,1.98l.52,58.14,15.22-.38c-3.1-34.7-4.16-64.06-2.89-79.75h-13.04l.11,12.02c0,1.1-.88,2.01-1.98,2.02h-.02c-1.1,0-1.99-.88-2-1.98l-.12-14.04c0-.53,.2-1.05,.58-1.43,.38-.38,.89-.59,1.42-.59h17.26c.57,0,1.11,.24,1.49,.66,.38,.42,.56,.98,.5,1.55-1.58,15.08-.5,46.22,2.88,83.31,.05,.55-.13,1.1-.5,1.51-.37,.41-.89,.66-1.44,.67,0,0-19.42,.49-19.43,.49Z"/>
          <path class="cls-2" d="M2379.49,278.13h-17.86c-1.09,0-1.98-.88-2-1.97l-.41-28.62c-.02-1.1,.86-2.01,1.96-2.03l17.75-.32c1.12-.06,2.02,.86,2.04,1.96l.53,28.94c0,.54-.2,1.05-.57,1.44-.38,.38-.89,.6-1.43,.6Zm-15.89-4h13.85l-.46-24.91-13.75,.25,.36,24.66Z"/>
        </g>
        <path class="cls-2" d="M1972.59,197.79c-.15,0-.3-.02-.45-.05-1.08-.25-1.75-1.32-1.5-2.4,3.52-15.15,17.88-24.08,30.56-26.21,1.09-.19,2.12,.55,2.3,1.64,.18,1.09-.55,2.12-1.64,2.3-11.37,1.91-24.22,9.82-27.32,23.17-.21,.92-1.04,1.55-1.95,1.55Z"/>
        <path class="cls-2" d="M1911.32,272.29s-.08,0-.12,0c-1.1-.07-1.94-1.01-1.88-2.12,.96-16.01,16.98-28.28,42.85-32.84,1.09-.19,2.12,.54,2.32,1.62,.19,1.09-.54,2.12-1.62,2.32-8.96,1.58-38.31,8.34-39.55,29.14-.06,1.06-.94,1.88-1.99,1.88Z"/>
        <path class="cls-2" d="M2041.56,124.49c-.39,0-.78-.11-1.13-.35-.91-.62-1.14-1.87-.52-2.78,24.27-35.4,65.93-71.75,104.27-73.13,1.1-.05,2.03,.82,2.07,1.93,.04,1.1-.82,2.03-1.93,2.07-36.95,1.33-77.41,36.82-101.12,71.39-.39,.57-1.01,.87-1.65,.87Z"/>
        <path d="M2391.96,137.58c-.38-.1-.69-.18-1.13-.27l-.08-.02-.21-.06c-.1-.03-.19-.07-.28-.11-.18-.08-.38-.2-.49-.3-.09-.08-.17-.17-.25-.26-.05-.04,.12,.12,.11,.09l-.32-.21-.93-.51-1.02-.5c-1.36-.66-2.78-1.29-4.2-1.91l-8.58-3.65c-5.76-2.36-11.56-4.65-17.38-6.89-11.64-4.48-35.07-13.09-35.07-13.09-.68-.25-1.02-1-.77-1.67,.25-.68,1-1.02,1.67-.77l67.01,25.08,1.14,.57,.68,.41c.15,.09,.46,.38,.55,.47-.05-.05-.1-.1-.16-.14-.07-.06-.22-.18-.36-.25-.07-.03-.14-.06-.21-.09-.06-.02-.19-.05-.14-.04l1.23,.19c1.09,.17,1.84,1.19,1.68,2.28-.17,1.09-1.19,1.84-2.28,1.68-.07-.01-.14-.03-.21-.04Z"/>
        <path d="M2394.62,124.36c-.52-.42-.97-.88-1.62-1.29-.32-.2-.6-.42-.93-.62l-1.01-.57c-1.36-.74-2.81-1.4-4.29-2.02-2.95-1.25-6.01-2.32-9.1-3.31-3.09-.99-6.23-1.87-9.38-2.72-3.15-.85-6.31-1.63-9.5-2.39-.79-.19-1.28-.98-1.09-1.77s.98-1.28,1.77-1.09c6.38,1.53,12.77,3.1,19.11,4.96,3.17,.93,6.33,1.93,9.47,3.1,1.57,.58,3.13,1.23,4.68,1.99l1.17,.57c.39,.2,.77,.46,1.16,.67,.76,.42,1.54,1.06,2.3,1.66,.85,.67,1,1.9,.33,2.75-.67,.85-1.9,1-2.75,.33l-.32-.26Z"/>
      </g>
    </g>
    <g>
      <g>
        <path class="cls-4" d="M703.42,155.93c-25.73-15.24-53.62-24.82-78.11-30.86-8.74-2.17-17.07-3.88-24.69-5.22-17.5-3.12-31.37-4.36-38.59-4.92-70.9-5.46-135.88-2.2-193.27,11.35-13.68,3.22-26.93,7.04-39.73,11.47-41.64,14.38-78.45,35.18-109.66,63.15-73.39,65.72-153.32,213.42-51.44,333.83,60.9-38.38,129.51-62.26,200.45-57.37,41.5,3.06,78.94,24.54,111.74,51.1,33.92,29,113.84,80.87,140.83,114.39,128.03-66.91,255.57-384.41,82.45-486.91Z"/>
        <path class="cls-2" d="M191.22,479.86c4.32,2.64,5.89,7.15,3.52,10.07l-13.15,16.21c-2.38,2.93-7.8,3.17-12.12,.53l-23.91-14.6c-4.32-2.63-5.9-7.14-3.52-10.07l13.15-16.21c2.38-2.93,7.8-3.17,12.12-.53l23.91,14.59Z"/>
        <path class="cls-2" d="M630.14,288.93c-52.68,41.65-64.3,59.13-109.43,61.1-45.66,1.99-85.99-21.49-88.48-78.52v-.32c-66.35,12.77-128.45,46.11-166.19,108.01l20.08-1c3.34,.03,6.59,1.77,9.64,2.81,.76,.26,1.51,.55,2.25,.86,1.47,.63,2.89,1.38,4.24,2.22,.67,.42,1.33,.87,1.97,1.35,1.92,1.42,3.67,3.07,5.22,4.9,2.58,3.06,4.59,6.66,5.84,10.64l23.83,76.02h0s20.08,64.03,20.08,64.03c10.12-5.62,20.96-10.13,32.59-10.64,28.27-1.23,136.17,39.43,166.74,38.1,10.24-.45,19.07-12.77,26.72-30.51,54.28,18.43,87.02,48.63,106.31,71.76,36.76-67.12,37.45-155.76,36.23-183.62-1.79-41.12-11.95-78.43-36.13-100.59-15.59-14.29-36.76-26.76-61.5-36.6Z"/>
        <path class="cls-2" d="M509.71,228.89c56.33-2.46,52.18-46.22,61.65-77.97,2.41-2.69,4.91-4.99,7.35-6.9,.01-.01,.04-.03,.05-.04,4.23-3.74,8.98-6.76,13.86-7.23,11.67-27.76,16.06-53.24,15.47-66.64-1.25-28.57-26.2-57.5-66.24-55.75-5.54,.24-11.11,.75-16.64,.99-42.34,1.85-33.96-16.7-66.67-15.27h-.14c-25.34,1.18-44.62,16.34-43.52,41.7,.73,16.8,11.79,36.17,26.77,41.59,2.94,1.07,6.05,1.59,9.25,1.45,24.7-1.08,43.97-20.04,65.81-20.99,19.24-.84,49.36,18.01,50.78,50.61,1.68,38.44-9.28,55.46-54.91,57.45-21.4,.93-10.36-9.5-28.41-8.71-9.2,.4-11.76,2.29-13.46,4.48-2.46,3.18-3.09,7.02-19.65,7.86-2.18,.11-4.05,.27-5.63,.62-4.84,1.06-6.9,3.77-6.56,11.61,.09,2.18,.34,4.29,.41,5.97,0,0,.16,4.3,.25,6.45,.93,21.42,7.92,31.13,29.66,30.18,.13,0,26.14-.84,40.51-1.47Z"/>
        <path class="cls-3" d="M511.45,330.57c53.63-2.34,71.34-29.87,95.01-49.96-5.63-1.72-11.4-3.31-17.28-4.78-7.88-1.96-13.56-8.82-13.94-16.92-.69-14.7-1.17-39.01,1.42-63.26,.43-4.11,2.53-7.89,5.83-10.39,11.56-8.7,23.63-22.69,23.15-33.62-.32-7.39-4.78-15.28-12.29-14.96-.24,.01-.49,.02-.73,.06-.01,.05-.04,.11-.06,.16-3.44,.55-8.48,2.9-13.8,7.07-.01,.01-.04,.03-.05,.04-2.43,1.91-4.93,4.21-7.35,6.9-9.47,31.75-5.32,75.51-61.65,77.97-14.38,.63-37.73,1.33-40.12,1.45,0,6.8-.16,13.6-.52,20.39-.48,8.82-7.27,15.98-16.04,17.12-2.15,.28-4.31,.58-6.46,.9-8.61,36.29,27.03,63.47,64.89,61.82Z"/>
        <path class="cls-2" d="M520.71,350.02c45.13-1.97,56.76-19.45,109.43-61.1-7.58-3.04-15.49-5.8-23.69-8.31-23.67,20.08-41.38,47.62-95.01,49.96-37.86,1.65-73.5-25.52-64.89-61.82-4.8,.71-9.59,1.51-14.34,2.43v.32c2.5,57.03,42.84,80.51,88.49,78.52Z"/>
        <path class="cls-3" d="M470.71,167.67c1.7-2.19,4.25-4.08,13.46-4.48,18.05-.79,7,9.64,28.41,8.71,45.63-1.99,56.59-19.01,54.91-57.45-1.42-32.6-31.54-51.45-50.78-50.61-21.85,.95-41.12,19.91-65.81,20.99-3.2,.14-6.31-.38-9.25-1.45,.94,23.48,3.24,83.15,3.79,92.78,1.57-.35,3.45-.51,5.63-.62,16.56-.84,17.19-4.68,19.65-7.86Z"/>
        <path d="M360.5,597.59c.19-.03,.37-.06,.56-.1,.53-.1,1.06-.22,1.57-.38,2.52-.77,4.69-2.27,6.32-4.21,.06-.07,.11-.13,.17-.2,.21-.27,.42-.54,.61-.82,.07-.11,.14-.22,.22-.33,.17-.27,.34-.54,.49-.82,.08-.14,.14-.28,.22-.42,.14-.27,.27-.53,.39-.81,.1-.23,.17-.46,.26-.69,.13-.37,.25-.74,.35-1.11,.07-.28,.15-.55,.2-.83,.04-.2,.06-.4,.1-.61,.04-.28,.08-.57,.1-.86,.02-.2,.03-.4,.03-.61,.01-.3,.01-.61,0-.91,0-.19-.01-.39-.03-.58-.03-.34-.07-.67-.12-1.01-.03-.17-.04-.33-.07-.5-.1-.5-.22-1.01-.37-1.51l-32.38-103.26h0s-23.83-76.03-23.83-76.03c-1.25-3.99-3.26-7.58-5.84-10.64-1.55-1.84-3.3-3.48-5.22-4.9-.64-.47-1.3-.92-1.97-1.35-1.35-.85-2.77-1.59-4.24-2.22-.74-.32-1.49-.6-2.25-.86-3.05-1.03-6.29-2.78-9.64-2.81H15.53c-7.51-.07-13.25,4.73-13.53,11.69-.06,1.53,.13,3.1,.63,4.67l54.07,167.81-.1,1.39c31.11,2.2,64.46,11.58,94.67,28.22,88.08-79.62,141.8-43.8,203.58,5.7l3.66,.04c.47,0,.93-.03,1.39-.07,.2-.02,.39-.04,.59-.07Z"/>
        <path class="cls-3" d="M585.23,537.97c-7.65,17.74-16.48,30.07-26.72,30.51-30.57,1.33-138.47-39.33-166.74-38.1-11.62,.51-22.47,5.02-32.59,10.64l12.31,39.25c.16,.5,.28,1.01,.37,1.51,.03,.17,.05,.33,.07,.5,.05,.34,.1,.68,.12,1.01,.02,.19,.02,.39,.03,.58,0,.31,.01,.61,0,.91,0,.2-.02,.4-.03,.61-.02,.29-.06,.58-.1,.86-.03,.2-.06,.41-.1,.61-.06,.28-.13,.56-.2,.83-.1,.38-.22,.75-.35,1.11-.08,.23-.16,.46-.26,.69-.12,.28-.26,.54-.39,.81-.07,.14-.14,.29-.22,.42-.15,.28-.32,.55-.49,.82-.07,.11-.14,.22-.22,.33-.19,.28-.4,.56-.61,.82-.06,.07-.11,.13-.17,.2-1.63,1.94-3.8,3.43-6.32,4.21-.51,.16-1.03,.28-1.57,.38-.19,.03-.37,.07-.56,.1-.19,.03-.39,.05-.59,.07-.46,.04-.92,.07-1.39,.07l-3.66-.04c54.17,43.4,114.35,93.63,209.46,89.49,63.92-2.79,103.29-33.74,127.23-77.43-19.29-23.14-52.04-53.33-106.31-71.76Z"/>
        <path class="cls-3" d="M372.09,583.88c.01,.31,.01,.61,0,.91,.01-.3,.01-.61,0-.91Z"/>
        <path class="cls-3" d="M371.94,582.29c.05,.34,.1,.68,.12,1.01-.03-.34-.07-.67-.12-1.01Z"/>
        <path class="cls-3" d="M371.49,580.28c.16,.5,.28,1.01,.37,1.51-.1-.5-.22-1.01-.37-1.51Z"/>
        <path class="cls-3" d="M361.06,597.49c-.19,.03-.37,.07-.56,.1,.19-.03,.38-.06,.56-.1Z"/>
        <path class="cls-3" d="M359.91,597.65c-.46,.04-.92,.07-1.39,.07,.47,0,.93-.02,1.39-.07Z"/>
        <path class="cls-3" d="M367.39,567.19l-8.2-26.16,8.2,26.16Z"/>
        <path class="cls-3" d="M369.12,592.7c-.05,.07-.11,.13-.17,.2,.06-.07,.11-.13,.17-.2Z"/>
        <path class="cls-3" d="M371.85,586.87c-.06,.28-.13,.56-.2,.83,.07-.28,.15-.55,.2-.83Z"/>
        <path class="cls-3" d="M369.94,591.55c-.07,.11-.14,.22-.22,.33,.07-.11,.14-.22,.22-.33Z"/>
        <path class="cls-3" d="M371.3,588.81c-.08,.23-.16,.46-.26,.69,.1-.23,.17-.46,.26-.69Z"/>
        <path class="cls-3" d="M372.05,585.4c-.02,.29-.06,.58-.1,.86,.04-.28,.08-.57,.1-.86Z"/>
        <path class="cls-3" d="M370.65,590.31c-.07,.14-.14,.29-.22,.42,.08-.14,.14-.28,.22-.42Z"/>
        <path d="M508.27,127.96c-.42-4.36,1.82-8.15,5.02-8.46,3.2-.31,6.13,2.97,6.56,7.34,.42,4.36-1.82,8.15-5.02,8.46-3.2,.31-6.13-2.97-6.56-7.34Z"/>
        <path d="M465.8,129.91c-.38-3.87,1.62-7.24,4.46-7.52,2.84-.28,5.45,2.64,5.83,6.52,.38,3.87-1.62,7.24-4.46,7.52-2.84,.28-5.45-2.64-5.83-6.52Z"/>
      </g>
      <g>
        <path d="M354.88,595.68c1.88-.05,3.91,0,5.36-.24,1.57-.26,3.06-.87,4.34-1.76,2.57-1.78,4.35-4.62,4.78-7.65,.21-1.51,.08-3.05-.37-4.5-.08-.33-.24-.8-.39-1.25,0,0-58.03-178.75-58.31-179.55-.26-.77-.64-1.5-.95-2.25-.38-.73-.75-1.45-1.16-2.17-.46-.68-.85-1.4-1.34-2.06-3.89-5.27-9.4-9.5-15.63-10.92-.39-.09-.77-.21-1.16-.27l-1.18-.17c-.79-.16-1.57-.13-2.36-.21-.36-.03-.87-.03-1.34-.03l-265.8-2.47c-1.86,0-3.9-.09-5.46,.06-1.65,.15-3.23,.68-4.65,1.45-2.84,1.56-4.87,4.39-5.26,7.55-.2,1.58-.02,3.2,.47,4.78l54.14,167.74c.34,1.05-.23,2.18-1.28,2.52-1.05,.34-2.18-.23-2.52-1.28L.74,395.21c-.64-2.05-.91-4.28-.63-6.48,.28-2.2,1.1-4.33,2.37-6.14,1.27-1.81,2.96-3.3,4.86-4.36,1.9-1.06,4.01-1.74,6.14-1.94,2.23-.2,3.98-.08,5.91-.11,0,0,265.3-.07,267.27,.03,1.02,.05,2.04,.06,3.04,.25l1.51,.22c.5,.08,.99,.22,1.49,.33,7.96,1.8,14.73,6.98,19.49,13.41,.6,.81,1.1,1.68,1.65,2.52,.5,.87,.97,1.76,1.43,2.65,.39,.92,.85,1.82,1.19,2.77,.33,.94,.71,1.92,.96,2.8,0,0,55.98,178.57,56.13,179.13,.53,2.1,.71,4.32,.35,6.48-.73,4.31-3.32,8.22-7,10.56-1.84,1.17-3.93,1.96-6.1,2.23-.53,.12-1.08,.09-1.62,.13-.57,.04-1.04,.03-1.51,.02l-2.84-.03c-1.1-.01-1.99-.92-1.98-2.02,.01-1.08,.87-1.95,1.94-1.98h.08Z"/>
        <path d="M151.41,594.05c-.33,0-.66-.08-.96-.25-39.71-21.89-87.64-32.14-128.23-27.44-1.1,.14-2.09-.66-2.22-1.76-.13-1.1,.66-2.09,1.76-2.22,41.38-4.81,90.22,5.63,130.62,27.91,.97,.53,1.32,1.75,.79,2.72-.36,.66-1.05,1.03-1.75,1.03Z"/>
        <path d="M279.11,362.11c-.42,0-.85-.13-1.21-.41-.88-.67-1.04-1.93-.37-2.8,49.55-64.66,122.65-86.28,175.24-93.03,2.75-.35,5.38-1.4,7.62-3.03,.89-.65,2.14-.45,2.79,.44,.65,.89,.45,2.14-.44,2.79-2.78,2.02-6.05,3.32-9.46,3.76-51.84,6.65-123.86,27.92-172.57,91.49-.39,.51-.99,.78-1.59,.78Z"/>
        <path d="M568.53,151.79c5.4-4.85,10.28-9.94,16.4-14.42,1.59-1.04,3.45-1.7,5.37-2.17,.96-.23,1.97-.28,2.97-.35l1.57,.08c.52,.08,1.04,.19,1.55,.29,2.03,.55,3.88,1.62,5.38,2.98,1.5,1.37,2.71,2.98,3.63,4.71,.92,1.74,1.59,3.58,2,5.49,.2,.95,.35,1.92,.44,2.9,.05,.49,.04,1.01,.04,1.51,0,.5,.05,1.03-.03,1.52-.32,4.02-1.66,7.71-3.37,11.08-3.43,6.76-8.21,12.51-13.54,17.61-1.33,1.28-2.71,2.51-4.12,3.71l-2.1,1.72c-.51,.4-.98,.85-1.4,1.34-.85,.98-1.53,2.11-1.99,3.34-.23,.61-.4,1.25-.54,1.89-.07,.32-.12,.64-.17,.97l-.14,1.28c-.73,6.95-1.46,13.93-1.9,20.94-.44,7.01-.81,14.04-1,21.08-.09,3.52-.29,19.49-.21,20.98v.26c.07,1.1-.77,2.04-1.87,2.1-1.08,.06-2-.75-2.1-1.81-.18-2.04-.14-3.69-.18-5.5-.04-1.78-.02-3.56-.06-5.33-.09-3.55-.09-7.11-.09-10.66,0-7.11,.24-14.21,.42-21.32,.18-7.11,.64-14.22,1.25-21.32l.12-1.34c.05-.49,.12-.98,.21-1.47,.18-.97,.46-1.93,.81-2.87,.7-1.86,1.74-3.6,3.05-5.12,.66-.76,1.39-1.45,2.18-2.08,.72-.58,1.38-1.08,2.06-1.63,1.35-1.08,2.67-2.2,3.95-3.37,5.1-4.65,9.8-9.88,13.13-15.77,1.65-2.93,2.92-6.06,3.3-9.19,.09-.39,.04-.77,.07-1.16,0-.39,.04-.76,.01-1.16-.05-.8-.14-1.59-.28-2.38-.28-1.58-.79-3.11-1.47-4.53-1.36-2.82-3.61-5.15-6.33-5.76l-1.04-.17-1.06-.03c-.76,.09-1.51,.14-2.27,.33-1.5,.38-3.01,.93-4.45,1.71-1.44,.77-2.83,1.69-4.17,2.71-1.34,1.02-2.63,2.14-3.87,3.32-2.5,2.35-4.82,4.94-7.09,7.61l-.18,.21c-.72,.85-1.99,.95-2.83,.23-.85-.72-.95-1.99-.23-2.83,.06-.07,.13-.14,.19-.2Z"/>
        <path d="M591.95,274.47c4.04,1.36,22.18,7.29,24.17,8.02,1.99,.72,3.99,1.44,5.99,2.13,2.01,.69,3.99,1.43,6,2.12,4.01,1.37,8.03,2.78,11.96,4.4,7.87,3.25,15.44,7.19,22.76,11.54l2.73,1.66c.91,.55,1.84,1.07,2.73,1.65,1.79,1.16,3.62,2.25,5.39,3.43,1.77,1.18,3.59,2.31,5.33,3.55,1.74,1.24,3.5,2.46,5.2,3.75,3.4,2.6,6.74,5.27,9.91,8.2,3.19,2.94,6.16,6.12,8.87,9.51,5.42,6.78,9.87,14.29,13.47,22.15,3.61,7.86,6.42,16.04,8.62,24.37,2.2,8.33,3.69,16.8,4.79,25.31,1.1,8.5,1.79,17.05,1.98,25.6,.18,8.54,.08,17.06-.21,25.57-.57,17.03-2.41,34-5.11,50.82-2.7,16.82-6.42,33.51-11.66,49.74-1.31,4.06-2.5,8.15-4.09,12.11l-3.38,8.98c-.37,1-.84,1.96-1.25,2.94l-3.89,8.77c-.43,.97-.86,1.95-1.37,2.89l-5.91,11.35c-.51,.98-1.72,1.36-2.7,.85-.97-.51-1.36-1.7-.86-2.68l5.72-11.25c.5-.92,.91-1.89,1.32-2.85l3.74-8.66c.4-.97,.85-1.92,1.2-2.91l3.23-8.87c1.53-3.91,2.66-7.96,3.91-11.97,5-16.04,8.53-32.55,10.95-49.2,2.41-16.65,3.95-33.45,4.45-50.26,.25-8.41,.32-16.82,.06-25.22-.26-8.39-.81-16.76-1.79-25.08-1.96-16.61-5.53-33.14-12.21-48.38-3.33-7.61-7.45-14.86-12.5-21.4-2.52-3.27-5.29-6.33-8.26-9.17-2.98-2.86-6.2-5.55-9.47-8.12-13.12-10.31-27.93-18.42-43.24-25.21-15.33-6.8-31.33-12.05-47.58-16.27l-.16-.04c-1.07-.28-1.71-1.37-1.43-2.44,.28-1.07,1.37-1.71,2.44-1.44,.05,.01,.1,.03,.14,.04Z"/>
        <path d="M666,645.38c-2.49,2.05-4.85,4.19-7.32,6.23-2.46,2.04-4.93,4.06-7.43,6.03-1.25,.99-2.58,1.87-3.84,2.85-.63,.49-1.25,1-1.89,1.46-.65,.46-1.31,.91-1.94,1.41-2.51,1.97-5.1,3.87-7.81,5.59-5.41,3.44-11.23,6.22-17.23,8.47l-2.23,.89-6.76,2.48-6.83,2.27-6.94,1.94-4.68,1.07c-3.11,.79-6.29,1.21-9.44,1.84-1.57,.31-3.17,.48-4.76,.71-1.59,.23-3.18,.46-4.77,.64l-4.79,.45c-1.6,.15-3.2,.32-4.79,.35l-12,.48c-.8,.01-1.6-.02-2.4-.03l-4.81-.09c-6.43,.07-12.83-.61-19.22-1.26-12.79-1.31-25.43-4.17-37.7-8.04-12.28-3.88-24.07-9.08-35.5-14.85-11.44-5.77-22.31-12.55-32.85-19.69l-3.95-2.68-3.88-2.78c-2.58-1.86-5.18-3.7-7.71-5.62-2.53-1.92-5.06-3.84-7.55-5.81l-7.48-5.97c-.86-.69-1.01-1.95-.32-2.81,.68-.86,1.93-1,2.79-.33l7.47,5.8c2.5,1.92,5.04,3.79,7.57,5.66,2.54,1.87,5.13,3.65,7.71,5.46l3.88,2.7,3.94,2.6c10.52,6.91,21.29,13.47,32.64,18.9,11.34,5.43,22.97,10.25,34.97,13.91,12.01,3.66,24.29,6.38,36.72,7.9,6.22,.76,12.45,1.45,18.72,1.57,0,0,6.26,.3,7.04,.3l11.75-.17c12.52-.33,24.96-2.11,37.02-5.28l2.27-.58,6.7-2.07,6.59-2.4,6.46-2.73,4.21-2.03c1.42-.65,2.78-1.4,4.14-2.15,1.36-.76,2.75-1.47,4.08-2.27,5.34-3.22,10.52-6.68,15.42-10.54,4.9-3.85,9.48-8.1,13.86-12.54l.17-.17c.78-.79,2.05-.8,2.84-.02s.8,2.05,.02,2.84c-.05,.05-.1,.1-.16,.14Z"/>
        <path d="M350.92,594.93c-4.24-3.98-8.71-7.69-13.3-11.22-2.29-1.77-4.61-3.51-7.06-5.06,0,0-6.19-3.77-7.4-4.55-1.21-.79-2.46-1.51-3.64-2.34l-3.64-2.34c-2.38-1.62-4.82-3.15-7.27-4.67-.61-.38-1.22-.77-1.84-1.14l-5.68-3.11c-1.29-.64-2.59-1.24-3.89-1.85-1.3-.61-2.59-1.24-3.91-1.78-10.59-4.33-21.54-7.9-32.79-8.86l-4.21-.34c-1.4-.12-2.81-.06-4.21-.1h-3.15l-5.24,.34c-1.4,.05-2.78,.29-4.17,.49l-4.16,.55-4.11,.86c-1.37,.31-2.75,.51-4.09,.95-10.83,2.9-21.23,7.38-31.12,12.89-9.89,5.51-19.45,11.8-28.45,18.92-8.98,7.11-17.73,14.59-26.08,22.56-8.34,7.96-16.37,16.28-24.39,24.63l-.1,.11c-.76,.8-2.03,.82-2.83,.06-.79-.76-.82-2.01-.08-2.8,7.95-8.52,15.92-17.01,24.23-25.19,8.31-8.18,17.08-15.88,26.06-23.33,8.99-7.45,18.63-14.16,28.82-19.98,10.18-5.81,21.07-10.61,32.59-13.39,1.42-.43,2.89-.63,4.34-.93l4.36-.83,4.42-.51c1.47-.16,2.94-.38,4.43-.39l5.56-.21,3.33,.12c1.48,.08,2.97,.06,4.44,.22l4.42,.49c1.48,.12,2.93,.4,4.39,.67,1.46,.27,2.92,.52,4.37,.81l6.45,1.62,6.33,2.01c1.39,.49,2.75,1.05,4.14,1.56,2.77,1.01,5.43,2.28,8.14,3.44,1.36,.58,2.65,1.27,3.97,1.92,1.32,.65,2.64,1.3,3.93,1.98l3.85,2.13c1.29,.7,2.57,1.42,3.82,2.18,2.5,1.52,5.04,2.99,7.48,4.6l3.69,2.37,3.62,2.46c9.65,6.59,18.92,13.66,28.07,20.83l.14,.11c.87,.68,1.02,1.94,.34,2.81-.68,.87-1.94,1.02-2.81,.34-.05-.04-.1-.08-.14-.12Z"/>
        <path d="M346.87,465.94c-.12,0-.25-.01-.38-.04-1.09-.21-1.8-1.25-1.59-2.34,6.26-32.94,14.3-58.46,20.61-77.01,.36-1.04,1.49-1.61,2.54-1.25,1.05,.36,1.6,1.49,1.25,2.54-6.27,18.42-14.26,43.76-20.47,76.46-.18,.96-1.02,1.63-1.96,1.63Z"/>
        <path d="M357.54,538.07c8.36-4.71,17.42-8.85,27.34-10.56,2.48-.43,4.96-.71,7.53-.74,1.3-.01,2.61-.01,3.84,.1l1.87,.13c.62,.06,1.22,.14,1.83,.21,4.87,.57,9.58,1.47,14.25,2.46,9.34,1.98,18.48,4.41,27.59,6.94,9.11,2.52,18.16,5.16,27.2,7.8,18.08,5.29,36.07,10.81,54.2,15.55,4.53,1.18,9.07,2.33,13.62,3.34,4.55,1.01,9.12,1.92,13.67,2.51l1.71,.22,3.39,.3,1.67,.04c1.17,.06,2.1,0,3.11-.17,.99-.18,1.97-.51,2.92-.93,3.86-1.7,7.13-5.03,9.95-8.59l.04-.05c.61-.77,1.73-.9,2.49-.29,.75,.6,.89,1.69,.32,2.45-2.9,3.89-6.28,7.76-11.06,10.1-1.19,.58-2.45,1.05-3.78,1.35-1.32,.29-2.75,.41-3.94,.39h-1.86l-3.65-.2c-.6-.05-1.2-.13-1.8-.2-4.79-.53-9.48-1.39-14.13-2.35-4.65-.96-9.26-2.03-13.85-3.17-9.18-2.27-18.28-4.76-27.35-7.33s-45.18-13.28-54.23-15.85c-9.04-2.57-18.11-5.05-27.26-7.13-4.57-1.04-9.17-1.91-13.78-2.56-1.16-.16-2.31-.26-3.46-.36-1.16-.11-2.3-.14-3.44-.14-2.3,0-4.61,.22-6.91,.55-9.21,1.3-17.99,5-26.28,9.37h-.02c-.9,.49-2.01,.14-2.49-.75-.47-.88-.14-1.97,.72-2.46Z"/>
        <path d="M582.28,536.26l3.01-7.78,2.74-7.92c1.75-5.32,3.5-10.64,5.06-16.04,0,0,3.89-13.5,4.63-16.22,1.48-5.43,18.25-68.34,18.69-69.7,.44-1.36,.85-2.72,1.35-4.07l1.47-4.06,1.78-4.02c.4-.9,1.44-1.3,2.34-.9,.86,.38,1.27,1.36,.95,2.23l-1.46,3.93-1.21,3.99c-.77,2.68-1.47,5.4-2.17,8.12-1.4,5.45-9.31,38.45-12.22,49.41-1.45,5.48-6.07,21.86-6.88,24.58-.81,2.72-1.67,5.42-2.55,8.12-1.76,5.39-3.6,10.77-5.57,16.09l-3.16,7.91-3.44,7.78c-.41,.93-1.5,1.35-2.43,.94-.9-.4-1.32-1.43-.97-2.34l.02-.05Z"/>
        <path d="M585.87,536.08c10.31,3.57,20.42,7.69,30.26,12.43,9.83,4.74,19.32,10.2,28.4,16.27,9.08,6.07,17.73,12.78,25.86,20.08,8.13,7.3,15.68,15.23,22.7,23.59h.01c.96,1.16,.81,2.86-.33,3.82-1.14,.96-2.85,.81-3.81-.33l-.03-.03c-6.74-8.27-13.99-16.14-21.83-23.4-7.84-7.26-16.22-13.96-25.03-20.05-8.81-6.09-18.05-11.59-27.66-16.41-9.6-4.81-19.52-9.03-29.64-12.71l-.05-.02c-.89-.33-1.36-1.31-1.03-2.21,.32-.89,1.3-1.35,2.18-1.04Z"/>
        <path d="M445.07,171.39c-1.06,0-1.94-.83-2-1.9-.37-7.09-2.31-57.2-3.14-78.98-.04-1.1,.82-2.03,1.92-2.07,1.14-.03,2.03,.82,2.08,1.92,.83,21.77,2.77,71.86,3.14,78.92,.06,1.1-.79,2.04-1.89,2.1-.04,0-.07,0-.11,0Z"/>
        <path d="M508.15,332.64c-21.41,0-41.84-8.84-53.96-23.51-9.8-11.86-13.11-25.99-9.57-40.86,.25-1.08,1.33-1.74,2.41-1.48,1.07,.26,1.74,1.33,1.48,2.41-3.23,13.6-.2,26.53,8.77,37.39,11.97,14.49,32.69,22.91,54.09,21.98,43.17-1.88,62.51-20.22,81.2-37.96,4.07-3.86,8.27-7.85,12.6-11.52,.84-.71,2.1-.61,2.82,.23,.71,.84,.61,2.1-.23,2.82-4.24,3.6-8.22,7.38-12.44,11.37-19.23,18.24-39.11,37.11-83.78,39.05-1.13,.05-2.26,.07-3.38,.07Z"/>
        <path d="M571.35,150.92c7.71-8.57,16.18-13.19,21.2-14.01,11.7-27.83,16.12-53.37,15.53-66.8-1.25-28.57-26.21-57.5-66.24-55.75-5.54,.24-11.11,.75-16.64,.99-42.33,1.85-33.97-16.7-66.67-15.27-.05,0-.09,0-.14,0-25.33,1.18-44.62,16.35-43.52,41.69,.88,20.11,16.55,43.89,36.02,43.04,24.69-1.08,43.97-20.04,65.81-20.99,19.25-.84,49.36,18.01,50.78,50.61,1.68,38.44-9.28,55.46-54.91,57.45-21.41,.93-10.36-9.5-28.41-8.71-22.59,.99-5.17,10.92-33.1,12.34-8.87,.45-12.64,1.83-12.19,12.23,.09,2.17,.34,4.29,.41,5.97,0,0,.16,4.3,.25,6.45,.93,21.41,7.92,31.13,29.66,30.18,2.52-.11,26.13-.84,40.51-1.47,56.32-2.46,52.19-46.22,61.65-77.97Z"/>
        <path d="M481.97,108.4c1.19,1.03,2.33,2.13,3.37,3.34,1.03,1.21,1.97,2.51,2.79,3.88,1.64,2.74,2.79,5.72,3.6,8.74,.82,3.02,1.26,6.09,1.6,9.14,.08,.77,.13,1.53,.19,2.29,.06,.76,.1,1.52,.11,2.36,.02,1.63-.14,3.31-.55,4.99-.41,1.68-1.22,3.34-2.33,4.76-1.11,1.42-2.53,2.56-4,3.42-2.97,1.73-6.08,2.5-8.96,3.29-1.44,.39-2.85,.77-4.13,1.23-1.28,.45-2.44,1.01-3.24,1.67-.81,.67-1.24,1.38-1.41,2.37-.02,.26-.09,.5-.09,.78v.84c.03,.5,.14,.95,.32,1.37,.54,1.27-.04,2.74-1.31,3.28-1.27,.54-2.74-.04-3.28-1.31,0-.02-.04-.09-.04-.09-.39-.97-.61-2.01-.63-3,0-.48,.01-.94,.03-1.41,.02-.47,.13-.97,.21-1.45,.08-.48,.28-.98,.44-1.46,.2-.48,.45-.95,.71-1.4,.58-.87,1.29-1.65,2.06-2.24,1.56-1.19,3.18-1.86,4.72-2.37,1.55-.51,3.05-.87,4.51-1.23,2.9-.71,5.67-1.4,7.93-2.64,2.25-1.24,3.83-3.05,4.5-5.5,.33-1.22,.5-2.52,.51-3.89,0-.66-.01-1.39-.05-2.13-.04-.73-.07-1.46-.13-2.18-.25-2.9-.6-5.78-1.28-8.56-.68-2.77-1.65-5.45-3.03-7.89-.69-1.22-1.48-2.37-2.37-3.46-.88-1.09-1.88-2.09-2.93-3.05l-.02-.02c-.67-.61-.72-1.65-.11-2.32,.6-.66,1.62-.72,2.29-.13Z"/>
        <path d="M501.01,100.61c1.06-.56,2.19-.83,3.31-.91,1.13-.08,2.24,.04,3.35,.13,2.22,.18,4.4,.63,6.54,1.2,2.13,.57,4.22,1.3,6.24,2.22,1.01,.46,2,.97,2.97,1.56,.99,.6,1.91,1.16,2.92,2.22,.62,.65,.6,1.69-.06,2.31-.56,.53-1.39,.59-2.01,.19l-.23-.15c-.55-.35-1.49-.81-2.37-1.18-.89-.37-1.84-.69-2.78-1.01-1.89-.64-3.84-1.13-5.79-1.53-1.95-.4-3.92-.71-5.89-.88l-2.94-.18c-.98-.13-1.95-.26-2.99-.72l-.16-.07c-.9-.4-1.31-1.45-.91-2.35,.17-.38,.45-.67,.8-.85Z"/>
        <path d="M476.92,105.71c-.99,.55-1.95,.75-2.92,.97l-2.92,.43c-1.94,.34-3.88,.82-5.79,1.39-1.91,.57-3.81,1.23-5.63,2.03-.91,.4-1.82,.8-2.68,1.25-.84,.44-1.74,.98-2.26,1.38l-.21,.17c-.71,.55-1.74,.42-2.29-.29-.47-.61-.44-1.44,.01-2.02,.91-1.14,1.78-1.79,2.71-2.47,.92-.67,1.85-1.27,2.82-1.81,1.93-1.09,3.94-2,6.02-2.75,2.08-.75,4.21-1.39,6.41-1.76,1.1-.18,2.2-.41,3.33-.42,1.12-.01,2.27,.15,3.38,.62,.91,.38,1.33,1.43,.95,2.34-.16,.38-.44,.68-.78,.87l-.15,.08Z"/>
        <path d="M580.62,174.28c-.84,0-1.66-.43-2.14-1.2-.72-1.18-.35-2.72,.83-3.44,2.33-1.42,5.26-4.91,6.16-6.55-.38-.08-.79-.14-1.23-.19-1.18-.16-2.51-.34-3.88-1.04-.67-.35-1.14-.97-1.3-1.71-.06-.29-.1-.58-.11-.88-.17-3.79,3.6-7.68,5.23-9.18,1.02-.93,2.6-.87,3.53,.15s.87,2.6-.15,3.53c-1.6,1.47-2.73,2.98-3.27,4.09,.19,.03,.39,.06,.6,.08,1.22,.16,2.75,.37,4.22,1.25,.5,.3,.88,.76,1.07,1.3l.07,.19c.17,.47,.41,1.11,.44,1.87,.15,3.37-5.7,9.47-8.8,11.36-.41,.25-.86,.37-1.3,.37Z"/>
        <path d="M515.19,352.15c-44.12,0-74.94-23.43-82.95-63.49-.22-1.08,.49-2.14,1.57-2.35,1.09-.22,2.14,.49,2.35,1.57,7.93,39.63,39.47,62.11,84.46,60.15,36.19-1.58,49.89-12.87,82.98-40.14,5.1-4.2,10.88-8.96,17.17-14.04,.86-.69,2.12-.56,2.81,.3,.69,.86,.56,2.12-.3,2.81-6.28,5.06-12.05,9.81-17.14,14.01-32.83,27.06-47.82,39.41-85.35,41.05-1.89,.08-3.76,.12-5.6,.12Z"/>
        <path class="cls-5" d="M188.94,478.57c1.39,.83,2.68,1.94,3.67,3.4,.98,1.44,1.74,3.32,1.52,5.47-.11,1.06-.47,2.14-1.07,3.03-.14,.21-.33,.47-.44,.62l-11.62,14.13c-.38,.34-.77,.67-1.19,.92-.84,.52-1.71,.88-2.58,1.08-3.47,.8-6.8-.13-9.43-1.79l-19.69-12.52c-1.3-.84-2.52-1.91-3.42-3.3-.89-1.37-1.53-3.12-1.31-5.03,.11-.94,.44-1.89,.98-2.68,.13-.19,.29-.41,.4-.55l11.56-14.06c.33-.31,.68-.6,1.06-.84,.75-.47,1.54-.83,2.34-1.03,3.19-.8,6.41-.04,9.01,1.49,0,0,15.76,9,20.21,11.66Zm-2.77,4.54l-19.61-12.64c-.93-.62-1.86-1.02-2.89-1.27-1.01-.24-2.07-.24-2.98-.04-.46,.1-.88,.27-1.22,.49-.18,.1-.32,.24-.47,.36-.06,.07-.13,.14-.19,.2l-11.12,13.86c-.18,.29-.28,.6-.32,.94-.07,.69,.22,1.53,.76,2.3,.54,.77,1.33,1.44,2.21,1.97l20.14,11.79c.92,.56,1.8,.88,2.77,1.06,.94,.18,1.91,.14,2.68-.07,.39-.11,.72-.26,.98-.44,.14-.08,.23-.19,.33-.27,.04-.05,.08-.1,.13-.15l11.08-13.78c.12-.18,.2-.36,.23-.59,.07-.45-.1-1.16-.55-1.86-.45-.69-1.15-1.35-1.96-1.87Z"/>
        <g>
          <path d="M251.51,245.95c-5.55,0-10.75-4.05-12.95-10.58-2.32-6.89-.95-15.62,6.16-18.98,1-.47,2.19-.04,2.66,.95,.47,1,.05,2.19-.95,2.66-4.94,2.34-5.79,9-4.08,14.08,2.23,6.62,7.64,8.78,11.6,7.45,3.22-1.08,4.61-4.47,5.14-6.39,.91-3.24,.82-7.07-.25-10.23-.71-2.1-1.79-3.76-3.14-4.81-.74-.58-1.55-.95-2.48-1.12-1.08-.21-1.79-1.26-1.58-2.34,.21-1.08,1.26-1.79,2.34-1.58,1.53,.3,2.93,.93,4.17,1.89,1.97,1.53,3.52,3.84,4.48,6.69,1.31,3.89,1.42,8.59,.31,12.58-1.3,4.63-4.04,7.87-7.72,9.11-1.24,.42-2.49,.62-3.72,.62Z"/>
          <path class="cls-2" d="M353.37,203.98c-.46,0-.91-.03-1.38-.09-7.13-.95-11.67-7.96-10.56-16.3,.52-3.93,2.25-7.68,4.75-10.3,2.9-3.04,6.67-4.43,10.62-3.9,.28,.04,.56,.08,.85,.14,3.35,.67,7.45,1.98,9.5,6.18,1.09,2.24,1.46,5,1.06,7.98-1.07,8.04-7.31,16.28-14.85,16.28Zm1.79-26.7c-2.81,0-4.83,1.46-6.08,2.77-1.92,2.02-3.26,4.96-3.68,8.06-.92,6.93,2.98,11.25,7.12,11.8,5.55,.74,10.86-6.25,11.73-12.75,.29-2.2,.05-4.17-.69-5.7-1.03-2.1-2.96-3.27-6.69-4.01-.2-.04-.4-.07-.59-.1-.39-.05-.76-.08-1.12-.08Z"/>
          <path d="M234.6,299.26c-.46,0-.91-.03-1.38-.09-7.13-.95-11.67-7.96-10.56-16.3,.52-3.93,2.25-7.68,4.75-10.3,2.9-3.04,6.67-4.43,10.62-3.9,.28,.04,.56,.08,.85,.14,3.35,.67,7.45,1.98,9.5,6.18,1.09,2.24,1.46,5,1.06,7.98-1.07,8.04-7.31,16.28-14.85,16.28Zm1.79-26.7c-2.81,0-4.83,1.46-6.08,2.77-1.92,2.02-3.26,4.96-3.68,8.06-.92,6.93,2.98,11.25,7.12,11.8,5.55,.74,10.86-6.25,11.73-12.75,.29-2.2,.05-4.17-.69-5.7-1.03-2.1-2.96-3.27-6.69-4.01-.2-.04-.4-.07-.59-.1-.39-.05-.76-.08-1.12-.08Z"/>
          <path d="M289.32,144.07c-.45,0-.9-.03-1.36-.09-3.37-.45-6.31-2.32-8.29-5.26-2.01-3-2.82-6.92-2.27-11.04,1.03-7.74,6.77-15.34,15.37-14.2,.28,.04,.57,.09,.85,.14,3.35,.67,7.45,1.98,9.5,6.18,1.09,2.24,1.46,5,1.06,7.98-.54,4.07-2.52,8.34-5.28,11.42-2.83,3.16-6.19,4.85-9.59,4.85Zm1.8-26.7c-5.4,0-9.02,5.39-9.75,10.84-.42,3.15,.16,6.09,1.62,8.28,1.33,1.98,3.28,3.23,5.5,3.52,3.36,.45,6.11-1.98,7.44-3.47,2.25-2.51,3.85-5.98,4.29-9.29,.29-2.2,.05-4.17-.69-5.7-1.03-2.1-2.96-3.26-6.69-4.01-.2-.04-.4-.07-.6-.1-.38-.05-.75-.08-1.12-.08Z"/>
          <path d="M162.71,330.91c-.74,0-1.5-.08-2.26-.24-7.32-1.57-10.6-11.17-8.96-18.8,.57-2.67,1.74-4.93,3.36-6.52,3.06-2.99,6.98-2.86,10.06-2.4h0c.26,.04,.52,.09,.78,.14,3.55,.76,6.37,3.11,7.93,6.62,1.33,3,1.66,6.73,.91,10.25-1.41,6.6-6.28,10.96-11.81,10.96Zm-.8-24.21c-1.9,0-3.21,.48-4.26,1.51-1.06,1.04-1.84,2.59-2.25,4.49-1.21,5.66,1.1,13.03,5.89,14.05,3.57,.76,8.04-1.66,9.33-7.65,.58-2.71,.34-5.54-.65-7.79-.72-1.63-2.2-3.71-5.11-4.33-.17-.04-.34-.07-.52-.09-.9-.13-1.7-.2-2.42-.2Z"/>
          <path d="M203.23,239.72c-2.65,0-5.19-.89-7.33-2.63-3.73-3.03-5.5-8.18-4.76-13.78,1.03-7.74,6.77-15.34,15.37-14.2,.28,.04,.57,.09,.85,.14,3.35,.67,7.45,1.98,9.5,6.18,1.09,2.24,1.46,5,1.06,7.98-.48,3.61-2.08,7.39-4.39,10.36-.68,.87-1.93,1.03-2.81,.35-.87-.68-1.03-1.93-.35-2.81,1.89-2.43,3.19-5.5,3.58-8.43,.29-2.2,.05-4.17-.69-5.7-1.03-2.1-2.96-3.27-6.69-4.01-.2-.04-.4-.07-.6-.1-6.03-.81-10.1,4.95-10.87,10.76-.56,4.21,.68,8,3.32,10.14,2.13,1.74,4.91,2.18,7.64,1.23,1.04-.37,2.18,.18,2.55,1.23,.37,1.04-.18,2.18-1.23,2.55-1.39,.49-2.79,.72-4.16,.72Z"/>
          <path d="M262.86,194.71c-.09,0-.18,0-.27-.02-1.09-.15-1.86-1.16-1.71-2.25,.73-5.36,1.85-10.71,2.84-15.42,.67-3.18,1.3-6.22,1.75-8.91-3.07,1.07-6.16,2.21-9.11,3.52-1.01,.45-2.19-.01-2.64-1.02-.45-1.01,.01-2.19,1.02-2.64,4.06-1.79,8.29-3.25,12.37-4.66l.15-.05c.65-.22,1.38-.1,1.91,.34,.54,.44,.81,1.12,.73,1.8-.05,.38-.1,.77-.15,1.15-.44,3.32-1.25,7.2-2.11,11.3-.97,4.65-2.08,9.92-2.79,15.15-.14,1-.99,1.73-1.98,1.73Z"/>
          <path d="M312.05,197.25c-.96,0-1.81-.7-1.97-1.68-.88-5.34-1.38-10.78-1.82-15.58-.3-3.23-.58-6.32-.95-9.03-2.61,1.93-5.24,3.92-7.68,6.04-.83,.72-2.1,.63-2.82-.2-.72-.83-.63-2.1,.2-2.82,3.36-2.91,6.96-5.54,10.46-8.09l.13-.09c.56-.41,1.29-.5,1.93-.24,.64,.26,1.1,.83,1.22,1.51,.07,.38,.13,.76,.2,1.14,.55,3.3,.92,7.25,1.3,11.43,.44,4.73,.93,10.1,1.78,15.3,.18,1.09-.56,2.12-1.65,2.3-.11,.02-.22,.03-.33,.03Z"/>
          <path class="cls-2" d="M194.04,291.61c-.87,0-1.68-.58-1.92-1.46-1.47-5.21-2.57-10.56-3.55-15.28-.66-3.18-1.29-6.22-1.95-8.87-2.38,2.21-4.77,4.48-6.96,6.86-.75,.81-2.01,.86-2.83,.11-.81-.75-.86-2.01-.11-2.83,3.01-3.26,6.3-6.28,9.48-9.2l.12-.11c.51-.47,1.22-.64,1.89-.45,.67,.18,1.19,.7,1.38,1.36,.11,.37,.22,.74,.32,1.11,.92,3.22,1.72,7.1,2.57,11.21,.96,4.65,2.05,9.93,3.48,15,.3,1.06-.32,2.17-1.38,2.47-.18,.05-.36,.08-.54,.08Z"/>
          <path d="M156.78,232.77c-.09,0-.18,0-.27-.02-1.09-.15-1.86-1.16-1.71-2.25,.73-5.36,1.85-10.71,2.84-15.43,.66-3.18,1.3-6.22,1.75-8.91-3.07,1.07-6.16,2.21-9.11,3.52-1.01,.45-2.19-.01-2.64-1.02-.45-1.01,.01-2.19,1.02-2.64,4.06-1.79,8.28-3.25,12.37-4.66l.16-.05c.65-.22,1.38-.1,1.91,.34,.54,.44,.81,1.12,.73,1.8-.05,.38-.1,.77-.15,1.15-.44,3.32-1.25,7.2-2.11,11.3-.97,4.65-2.08,9.92-2.79,15.15-.14,1-.99,1.73-1.98,1.73Z"/>
          <path class="cls-2" d="M294.31,251.87c-.09,0-.18,0-.27-.02-1.09-.15-1.86-1.16-1.71-2.25,.73-5.37,1.85-10.71,2.84-15.43,.66-3.18,1.3-6.21,1.75-8.91-3.07,1.07-6.16,2.21-9.11,3.52-1.01,.45-2.19-.01-2.64-1.02-.45-1.01,.01-2.19,1.02-2.64,4.06-1.79,8.29-3.25,12.38-4.66l.15-.05c.65-.22,1.38-.1,1.91,.34,.54,.44,.81,1.12,.73,1.8l-.15,1.15c-.44,3.32-1.25,7.2-2.11,11.3-.97,4.65-2.08,9.92-2.79,15.15-.14,1-.99,1.73-1.98,1.73Z"/>
          <path d="M226.1,186.29c-.9,0-1.72-.61-1.94-1.53-1.28-5.26-2.2-10.64-3.01-15.39-.54-3.2-1.07-6.26-1.64-8.93-2.46,2.12-4.92,4.31-7.19,6.61-.78,.79-2.04,.79-2.83,.02-.79-.78-.79-2.04-.02-2.83,3.12-3.15,6.51-6.05,9.79-8.85l.14-.12c.53-.45,1.24-.59,1.9-.39,.66,.21,1.16,.74,1.33,1.41,.1,.37,.19,.75,.28,1.12,.8,3.25,1.47,7.16,2.17,11.29,.8,4.68,1.7,9.99,2.95,15.12,.26,1.07-.4,2.16-1.47,2.42-.16,.04-.32,.06-.48,.06Z"/>
        </g>
        <path d="M523.69,531.3c-.65,0-1.28-.31-1.67-.89-.61-.92-.37-2.16,.55-2.77,13.72-9.17,26.54-20.02,42.85-36.28,.78-.78,2.05-.78,2.83,0,.78,.78,.78,2.05,0,2.83-11.64,11.61-25.91,25.06-43.45,36.77-.34,.23-.73,.34-1.11,.34Z"/>
        <path d="M543.87,532.54c-.64,0-1.28-.31-1.66-.89-.62-.92-.37-2.16,.55-2.78,8.69-5.83,15.73-12.7,20.92-20.42,.62-.92,1.86-1.16,2.78-.54,.92,.62,1.16,1.86,.54,2.78-5.48,8.15-12.88,15.39-22.01,21.51-.34,.23-.73,.34-1.11,.34Z"/>
        <path class="cls-2" d="M425.52,46.94c-1.1-2.48-1.48-5.12-1.65-7.55l-.11-1.82c0-.64,0-1.28,.03-1.92,.02-.64-.01-1.28,.09-1.92l.31-1.91c.85-5.14,3.87-9.73,7.61-13.11,.44-.46,.96-.82,1.46-1.21l1.5-1.15c1.07-.65,2.09-1.39,3.2-1.95,1.11-.56,2.2-1.18,3.35-1.62l1.71-.72,1.75-.6c1.16-.43,2.35-.72,3.53-1.05,1.18-.33,2.39-.53,3.59-.8,.6-.13,1.21-.2,1.81-.31,.6-.11,1.2-.23,1.81-.3,1.21-.15,2.43-.23,3.65-.33,1.09-.08,2.05,.73,2.13,1.83,.08,1.08-.72,2.03-1.79,2.13h-.12c-2.27,.23-4.55,.32-6.78,.78-1.11,.23-2.23,.43-3.33,.74-1.09,.31-2.2,.58-3.25,.97l-1.6,.55-1.55,.66c-1.06,.4-2.02,.96-3.02,1.47-1,.51-1.89,1.17-2.84,1.74l-1.31,1.01c-.43,.34-.89,.66-1.26,1.05-3.2,2.94-5.66,6.69-6.34,10.94l-.25,1.59c-.09,.53-.05,1.08-.07,1.61-.02,.54-.03,1.08-.03,1.62l.11,1.72c.17,2.26,.51,4.37,1.34,6.22,.45,1.01,0,2.19-1.01,2.64s-2.19,0-2.64-1.01h0Z"/>
        <path class="cls-2" d="M473.78,10.58c1.4,.46,2.79,.98,4.14,1.6,.68,.31,1.35,.64,2.01,.99l.99,.55c.08,.04,.16,.1,.25,.14,.1,.02,.19,.05,.27,.1,.17,.09,.33,.19,.48,.3,.9,.64,1.1,1.88,.47,2.78-.58,.82-1.67,1.06-2.53,.62l-.06-.03c-.14-.07-.28-.16-.41-.25-.07-.04-.13-.1-.18-.17-.07-.05-.14-.09-.21-.13-.28-.17-.57-.32-.86-.47-.58-.3-1.18-.58-1.79-.84-1.22-.52-2.47-.98-3.75-1.36-1.06-.32-1.65-1.44-1.33-2.49,.32-1.06,1.44-1.65,2.49-1.33h.04Z"/>
        <path d="M129.97,263.7c-3.61,9.03-6.68,18.27-9.28,27.64-2.6,9.37-4.64,18.87-6.45,28.41-1.81,9.54-2.99,19.2-3.61,28.88-.62,9.68-.66,19.4,.04,29.06,.07,1-.68,1.86-1.67,1.94-1,.07-1.86-.68-1.94-1.67-1.4-19.71,.33-39.47,3.65-58.84,1.66-9.7,4.1-19.25,6.95-28.66,2.85-9.41,6.21-18.66,10.1-27.68,.26-.61,.96-.89,1.57-.62,.6,.26,.87,.95,.63,1.55Z"/>
        <path d="M213.89,346.58c-5.51,4.61-10.61,9.71-15.28,15.18-4.67,5.48-8.84,11.38-12.55,17.55-.46,.76-1.45,1.01-2.21,.55-.76-.46-1.01-1.44-.56-2.2,3.73-6.36,8.01-12.4,12.69-18.11,4.69-5.71,9.85-11.02,15.42-15.89,.8-.7,2.01-.62,2.7,.18,.7,.8,.62,2.01-.18,2.7,0,0-.03,.02-.04,.03Z"/>
        <path d="M224.46,335.21c1.62-1.19,3.22-2.2,4.81-3.26,1.58-1.06,3.19-2.08,4.74-3.17,0,0,7.89-5.29,8.28-5.57l1.6-1.19c.94-.7,2.27-.5,2.97,.44,.7,.94,.5,2.27-.44,2.97-.33,.24-.71,.38-1.09,.41-.28,.02-.76,.27-1.15,.46-.41,.21-.81,.45-1.22,.68-.8,.48-1.6,.97-2.4,1.46-1.61,.97-3.18,2-4.76,3.02-1.58,1.02-3.11,2.1-4.62,3.21-1.5,1.1-2.97,2.29-4.28,3.49h-.02c-.78,.73-2,.67-2.71-.11-.71-.78-.66-2,.13-2.71,.05-.05,.11-.09,.16-.13Z"/>
      </g>
    </g>
    <g>
      <g>
        <path class="cls-4" d="M1166.25,603.76c-17.11-2.92-33.95-6.51-50.27-10.85-24.78-6.6-48.4-14.93-70.04-25.26-82.61-39.38-136.53-107.74-117.4-219.26,18.43-107.5,171.36-318.46,431.78-275.12,391.63,65.19,321.9,618.33-194.07,530.49Z"/>
        <path class="cls-5" d="M1622.92,259.58l32.78,1.72c-3.35-39.97-35.78-72.32-76.95-74.48-5.28-.28-10.46-.04-15.51,.66,7.02,10.31,13.2,21.05,18.57,32.09,21.05,3.14,37.48,19.5,41.11,40.01Z"/>
        <path d="M1494.46,252.86l32.78,1.72c6.18-21.5,26.53-36.7,49.83-35.48,1.61,.08,3.19,.25,4.75,.48-5.37-11.05-11.55-21.78-18.57-32.09-34.33,4.75-62.25,31.03-68.79,65.38Z"/>
        <path d="M1452.41,36.92c-.26,9.51,7.11,17.53,16.66,18.03-9.76-.51-17.99,7-18.5,16.65,.25-9.51-7.13-17.52-16.66-18.02,9.77,.51,17.99-7.01,18.5-16.66Z"/>
        <path class="cls-2" d="M1535.23,241c.07-.02,.15-.05,.22-.06-.06,.11-.13,.22-.18,.32,0-.08-.02-.18-.04-.26Z"/>
        <path class="cls-3" d="M1556,276.32l.16-3.02c.61-11.6-1.92-24.42-7.85-24.73-1.22-.06-2.33,.24-3.3,.74-.63-6.58-2.54-8.74-5.91-8.92-.9-.05-2.22,.12-3.65,.55-.06,.11-.13,.22-.18,.32,0-.08-.02-.18-.04-.26-1.36-9.85-9.96-6.64-15.74,8.95-.9,2.42-1.73,5.15-2.46,8.17-4.78,19.85-9.15,34.77-12.67,42.25,.25-15.99,1.79-32.86-9.35-37.86-2.98-1.34-6.39,.75-6.73,4.01-1.84,17.58-6.6,41.35-17.04,51.37l-94.17,81.3c-5.21,4.51-13.24,3.14-16.67-2.83l-26.37-45.8c-24.63,16.15-54.41,38.83-82.57,67.98,8.31,13.4,16.95,25.91,26.2,38.17,5.82,7.72,11.88,15.33,18.25,23.02,4.72,5.7,9.62,11.42,14.72,17.27,18.17,20.81,49.17,24.51,71.68,8.49,3.12-2.22,6.18-4.43,9.19-6.59,174.46-126.42,162.41-182.32,164.52-222.57Z"/>
        <polygon class="cls-2" points="1458.1 164.55 1459.49 232.86 1415.24 233.76 1413.86 165.45 1349.43 166.76 1347.15 54.21 1391.4 53.31 1392.78 121.62 1457.21 120.31 1458.1 164.55"/>
        <path class="cls-2" d="M1391.48,498.89l-6.32,120.79c-.43,8.3-7.52,14.68-15.83,14.25l-221.88-11.61c-8.3-.43-14.69-7.52-14.25-15.82l7.06-134.91,155.64,8.14c4.72,5.7,9.62,11.42,14.72,17.27,18.17,20.81,49.17,24.51,71.68,8.49,3.12-2.22,6.18-4.43,9.19-6.59Z"/>
        <g>
          <path class="cls-4" d="M1262.2,592.69c-38.56-2.5-57.68-4.02-95.69-5.1l4.33-79.36c28.49,2.45,56.9,2.69,96.33,4.09-2.59,21.92-4.56,49.48-4.97,80.37Z"/>
          <g class="cls-1">
            <path class="cls-4" d="M1262.2,592.69c-38.56-2.5-57.68-4.02-95.69-5.1l4.33-79.36c28.49,2.45,56.9,2.69,96.33,4.09-2.59,21.92-4.56,49.48-4.97,80.37Z"/>
            <path class="cls-2" d="M1242.27,671.3c-1.07,0-1.96-.85-2-1.93-.97-29.11-83.61-136.13-117.16-143.3-1.08-.23-1.77-1.29-1.54-2.37,.23-1.08,1.29-1.77,2.37-1.54,35.36,7.55,119.28,115.84,120.32,147.08,.04,1.1-.83,2.03-1.93,2.07-.02,0-.04,0-.07,0Z"/>
            <path class="cls-2" d="M1214.61,571.07c-.15,0-.3,0-.45-.01-10.84-.57-39.55-35.52-45.19-42.52-15.52-19.25-34.33-46-36.26-58.08-.17-1.09,.57-2.12,1.66-2.29,1.09-.18,2.12,.57,2.29,1.66,1.47,9.16,15.71,31.74,35.43,56.2,21.46,26.61,37.52,40.79,42.29,41.04,1.23,.06,1.69-.36,1.96-.78,1.39-2.13,1.99-9.84-9.69-37.58-7.89-18.73-18.78-40.59-27.53-58.16-7-14.05-12.52-25.14-14.22-30.01-.36-1.04,.19-2.18,1.23-2.55,1.05-.36,2.18,.19,2.55,1.23,1.61,4.63,7.09,15.62,14.02,29.54,24.18,48.54,43.66,89.55,36.99,99.72-.79,1.2-2.3,2.59-5.07,2.59Z"/>
            <path class="cls-2" d="M1274.93,647.55c-.47,0-.95-.17-1.33-.5-44.7-39.7-42.99-49.19-39.88-66.42,2.66-14.74,6.29-34.93-21.46-88.38-.51-.98-.13-2.19,.85-2.7,.99-.51,2.19-.12,2.7,.85,28.38,54.67,24.6,75.63,21.85,90.94-2.85,15.81-4.42,24.52,38.6,62.73,.83,.73,.9,2,.17,2.82-.39,.45-.94,.67-1.5,.67Z"/>
            <path class="cls-2" d="M1282.24,579.87c-.32,0-.65-.08-.95-.24-36.89-20.07-38.96-50.93-40.96-80.78-.11-1.58-.21-3.15-.32-4.73-.08-1.1,.75-2.06,1.86-2.13,1.11-.08,2.06,.75,2.13,1.86,.11,1.58,.22,3.16,.32,4.74,2.01,30.09,3.92,58.51,38.88,77.53,.97,.53,1.33,1.74,.8,2.71-.36,.67-1.05,1.04-1.76,1.04Z"/>
          </g>
        </g>
        <path class="cls-2" d="M1251.44,418.54c8.31,13.4,16.95,25.91,26.2,38.17l-121.19-6.34c-8.31-.43-15.39,5.96-15.82,14.26l-7.42,141.87c-.17,3.15,.66,6.13,2.18,8.64-25.71-4.52-50.38-10.86-73.22-19.36,1.89-9.28,3.26-19.95,3.9-32.19,.03-.59,.06-1.16,.07-1.76,1.81-46.36-22.18-77.12-36.38-117.85-4.94,3.98-9.52,7.7-13.39,11.28-22.15-20.3-42.87-42.5-63.12-64.72,20.07-20.23,40.02-37.89,60.14-53.46,11.33,23.68,35.09,40.48,63.25,41.54,39.11,1.47,72.8-28.73,75.59-67.76,.06-.76,.1-1.51,.13-2.27,.42-10.12-2.32-20.14-7.41-28.92-2.74-4.71-5.28-9.36-7.68-14.04,12.74-5.29,25.8-10.21,39.2-14.87,.49-.17,.98-.34,1.46-.51,47.7-16.43,100.36,3.5,125.54,47.22l30.57,53.09c-24.63,16.15-54.42,38.83-82.57,67.98Z"/>
        <path d="M1295.9,479.72l-155.64-8.14,.37-6.97c.43-8.3,7.52-14.68,15.83-14.25l121.19,6.34c5.82,7.72,11.88,15.33,18.25,23.02Z"/>
        <path d="M1164.27,40.02c67.51-66.9,107.02,20.45,67.61,69.23-2.31-7.07-5.07-14.52-8.29-22.36-31.74,20.18-51.22,25.87-78.81,21.23,1.13,38.1-4.54,52.61-26.82,57.8,0,0-9.05-11.42-19.86-4.16-10.81,7.26-10.11,28.67,14.37,39.34,6.6,23.5,14.22,44.03,24.78,64.53,2.4,4.67,4.95,9.33,7.68,14.04,5.09,8.78,7.81,18.79,7.41,28.92-.03,.76-.07,1.51-.13,2.27-3.02,39.01-36.48,69.22-75.59,67.76-28.16-1.05-51.92-17.86-63.25-41.54-5.09-10.65-7.67-22.69-7.01-35.3,1.19-22.72,12.64-42.48,29.63-55.01-17.05-24.41-10.97-57.13,11.87-72.04-8.68-51.6,24.6-124.87,96.69-126.55,7.38-.16,14.46-2.98,19.71-8.16Z"/>
        <path class="cls-3" d="M1174.37,233.91c.39,5.66,1.06,11.31,2.08,16.85-13.41,4.65-26.46,9.59-39.2,14.87-10.56-20.5-18.18-41.04-24.78-64.53-24.48-10.67-25.18-32.08-14.37-39.34,10.81-7.26,19.86,4.16,19.86,4.16,22.28-5.2,27.95-19.7,26.82-57.8,27.59,4.65,47.07-1.04,78.81-21.23,3.23,7.84,5.98,15.29,8.29,22.36,30.81,93.99-15.48,121.69-57.51,124.66Z"/>
        <path class="cls-3" d="M1066.13,561.83c0,.58-.04,1.17-.07,1.76-1.04,19.87-4,35.53-7.95,47.99-1.93-6.04-3.66-10.81-8.26-11.81-4.1-.88-6.2,1.38-7.09,5.49-1.84,8.51-1.05,16.72,1.64,24.43-6.9-10.27-7.94-22.16-15.67-22.98-4.17-.44-6.01,2.03-6.45,6.22-.02,.22-.05,.45-.07,.68-48.53-33.26-80.04-65.45-103.02-109.71-15.32-29.51-10.57-65.5,11.85-90.04,7.43-8.14,14.83-15.91,22.2-23.32,20.26,22.22,40.96,44.42,63.12,64.72-6.72,6.24-11.22,12.05-11.54,18.15-.87,16.71,39.31,51.28,60.29,86.64,.35,.59,.7,1.17,1.01,1.77Z"/>
        <path class="cls-3" d="M1049.85,599.77c4.6,1,6.33,5.77,8.26,11.81-3.19,10.08-7.04,18.05-11.02,24.43-1.04-2.07-1.93-4.18-2.69-6.33-2.7-7.71-3.48-15.92-1.64-24.43,.89-4.1,2.98-6.37,7.09-5.49Z"/>
        <path class="cls-3" d="M1047.09,636.01c-3.84,6.16-7.82,10.85-11.49,14.55-2.75-3.14-5.17-6.46-7.18-9.95,0,0-.01,0-.01-.01-4.66-8.12-7.16-17.19-6.2-27,.02-.22,.05-.45,.07-.68,.44-4.19,2.28-6.66,6.45-6.22,7.73,.81,8.77,12.71,15.67,22.98,.75,2.14,1.65,4.26,2.69,6.33Z"/>
        <path class="cls-3" d="M1028.42,640.61c2,3.5,4.43,6.81,7.18,9.95-5.8,5.84-10.87,9.23-13.49,11.99-12.27-10.74-20.38-24.55-19.53-40.87,.22-4.2,1.92-6.77,6.11-6.55,8.69,.45,9.74,15.12,19.73,25.47,0,.01,.01,.01,.01,.01Z"/>
        <path d="M1172.75,155.51c-.85,2.59-1.11,5.63-.67,8.48,.71,4.55,3.52,8.89,7,8.35,3.99-.62,4.98-8.58,4.31-12.91-.89-5.73-4.3-7.78-6.79-7.39-.58,.09-1.16,.31-1.72,.7-1.01,.69-1.76,1.63-2.13,2.76Z"/>
        <path d="M1217.34,145.15c-.6,2.15-.69,4.64-.22,6.96,.75,3.69,3.22,7.13,6.04,6.55,3.23-.66,3.74-7.2,3.03-10.71-.95-4.65-3.81-6.19-5.83-5.78-.47,.1-.93,.3-1.38,.64-.8,.6-1.38,1.4-1.64,2.34Z"/>
        <path d="M1520.35,95.61l-24.7,46.89c-2.04,4.07-4.15,8.37-6.37,13.02,28.38-2.12,45.08-4.71,73.87-7.74-15.95-21.01-28.46-34.78-42.8-52.17Z"/>
      </g>
      <g>
        <path d="M1005.99,603.33c-16.07-11.51-31.42-24.14-45.27-38.39-13.83-14.24-26.1-30.08-36.13-47.24-1.25-2.14-2.53-4.28-3.72-6.46l-3.51-6.58c-2.2-4.55-4.19-9.21-5.59-14.07-2.78-9.71-3.99-19.9-3.01-29.96,.97-10.04,3.64-19.94,8.23-28.9l1.75-3.34c.61-1.1,1.32-2.14,1.97-3.21l1.5-2.39,2.8-3.79c.38-.5,.73-1.02,1.14-1.5l3.7-4.26,5.11-5.37c.45-.47,1.19-.49,1.66-.04,.46,.44,.49,1.16,.07,1.63l-4.9,5.54-3.46,4.22c-.38,.47-.7,.99-1.06,1.48l-2.6,3.72-1.38,2.35c-.6,1.05-1.26,2.07-1.81,3.14l-1.6,3.25c-4.27,8.68-6.68,18.2-7.42,27.79l-.15,1.8c-.05,.6-.02,1.2-.04,1.8l-.06,3.61c-.04,1.2,.09,2.4,.16,3.61,.07,1.2,.09,2.41,.26,3.6l.48,3.58c.09,.59,.14,1.19,.26,1.79l1.13,5.29c.3,1.16,.68,2.31,1,3.46,1.32,4.63,3.27,9.05,5.38,13.36l3.49,6.46c1.17,2.15,2.41,4.26,3.63,6.38,4.89,8.48,10.37,16.61,16.27,24.42,5.9,7.82,12.25,15.28,18.95,22.44,6.69,7.16,13.84,13.9,21.21,20.4,7.37,6.5,15.02,12.68,22.8,18.72,.45,.35,.54,1,.19,1.45-.34,.44-.97,.53-1.42,.21Z"/>
        <path d="M1333.88,352.32c-.69,0-1.37-.36-1.74-1l-30.43-52.86c-24.71-42.92-76.5-62.39-123.14-46.32-9.44,3.25-18.67,6.64-27.44,10.06-1.03,.4-2.19-.11-2.59-1.14-.4-1.03,.11-2.19,1.14-2.59,8.81-3.44,18.1-6.84,27.59-10.11,48.45-16.7,102.25,3.54,127.91,48.11l30.43,52.86c.55,.96,.22,2.18-.74,2.73-.31,.18-.66,.27-1,.27Z"/>
        <path d="M1346.14,367.61l15.89,27.59c.18,.32,.34,.51,.5,.79,.15,.26,.37,.47,.55,.71,.18,.24,.39,.45,.61,.65,1.74,1.63,4.13,2.59,6.53,2.49,1.2-.05,2.38-.34,3.46-.84,1.12-.53,1.93-1.18,3.11-2.23l93.03-80.31c1.86-1.84,3.55-4.07,4.94-6.48,1.4-2.43,2.6-4.99,3.63-7.66,2.05-5.32,3.62-10.88,4.83-16.53,1.22-5.65,2.14-11.38,2.8-17.14l.24-2.16c.01-.15,.06-.44,.1-.68,.04-.25,.1-.5,.18-.75,.14-.49,.35-.97,.6-1.42,1.01-1.8,2.81-3.11,4.88-3.45,1.03-.17,2.12-.11,3.11,.23,.24,.08,.49,.18,.72,.28l.56,.28c.38,.18,.75,.39,1.1,.61,1.43,.9,2.74,2.02,3.8,3.32,2.13,2.63,3.27,5.72,3.98,8.74,.71,3.03,1,6.06,1.15,9.06,.3,5.99,0,11.87-.09,17.69l-3.81-.88c1.26-2.48,2.34-5.15,3.34-7.84,1-2.69,1.94-5.42,2.82-8.18,1.76-5.51,3.32-11.1,4.83-16.7,.75-2.8,1.5-5.61,2.19-8.43,.71-2.84,1.53-5.7,2.57-8.47,1.04-2.77,2.22-5.52,3.79-8.08,1.56-2.55,3.35-5.09,6.25-6.76,.76-.36,1.57-.71,2.54-.74,.94-.03,1.97,.22,2.74,.81,1.53,1.19,2.12,2.86,2.46,4.38,.71,3.08,.51,6.12,.13,9.06-.75,5.81-5.46,43.25-5.46,43.25l-.4,4.32-.14,2.14-.04,1.03v.46s0,.15,0,.13v-.08c-.02-.06-.03-.12-.05-.17,.03,.09-.1-.36-.3-.59-.2-.27-.48-.48-.74-.59,1,.47,1.43,1.66,.96,2.66-.47,1-1.66,1.43-2.66,.96-.27-.13-.57-.36-.78-.65-.21-.25-.35-.72-.32-.65-.03-.1-.05-.2-.07-.3l-.02-.15v-.2c-.02-.2-.01-.27,0-.41l.04-.63,.12-1.14,7.63-49.65c.37-2.8,.52-5.67-.05-8.29-.28-1.28-.82-2.51-1.62-3.13-.39-.3-.85-.4-1.35-.4-.5,0-1.07,.25-1.61,.5-1.09,.61-2.09,1.54-2.98,2.58-.89,1.05-1.68,2.2-2.4,3.41-1.45,2.41-2.58,5.04-3.54,7.72-.96,2.69-1.71,5.44-2.37,8.25l-2,8.51c-1.35,5.67-2.8,11.32-4.37,16.95-1.57,5.64-3.13,11.27-5.54,16.82-.44,1.01-1.63,1.45-2.64,1-.75-.34-1.18-1.08-1.17-1.84v-.04c.09-5.89,.38-11.72,.1-17.43-.14-2.85-.42-5.67-1.05-8.34-.62-2.66-1.61-5.18-3.19-7.13-.79-.97-1.73-1.77-2.77-2.43-.26-.17-.53-.32-.81-.45l-.42-.21-.3-.11c-.4-.13-.81-.16-1.23-.09-.83,.13-1.62,.7-2.04,1.46-.11,.19-.2,.39-.25,.6-.03,.1-.07,.21-.07,.32-.02,.11-.04,.19-.06,.4l-.25,2.2c-.67,5.87-1.61,11.72-2.86,17.52-1.25,5.8-2.86,11.54-5.02,17.15-1.08,2.8-2.37,5.56-3.89,8.2-1.53,2.66-3.38,5.15-5.7,7.43l-93.11,80.38c-1,.9-2.48,2.11-4.03,2.82-1.57,.72-3.29,1.15-5.01,1.22-3.46,.14-6.92-1.22-9.44-3.61-.32-.3-.62-.61-.89-.95-.27-.34-.56-.66-.79-1.03-.22-.35-.5-.75-.68-1.06l-15.89-27.59c-.55-.96-.22-2.18,.74-2.73s2.18-.22,2.73,.74Z"/>
        <path d="M1534.98,240.18c1.55-.48,3.17-.88,4.97-.64,.87,.12,1.78,.43,2.56,.97,.78,.54,1.38,1.28,1.81,2.04,.87,1.55,1.24,3.16,1.52,4.74,.29,1.59,.41,3.17,.49,4.74,.35,6.29,0,12.51-.37,18.72-.72,12.41-1.87,24.75-2.96,37.1-.1,1.1-1.07,1.91-2.17,1.82-1.1-.1-1.91-1.07-1.82-2.17,0-.02,0-.05,0-.07,1.47-12.3,3-24.59,4.1-36.9,.55-6.14,1.08-12.32,.93-18.41-.04-1.52-.11-3.04-.33-4.51-.21-1.46-.53-2.92-1.15-4.1-.63-1.2-1.59-1.93-2.91-2.16-1.29-.22-2.79,.04-4.19,.44h-.02c-.45,.13-.92-.13-1.05-.58-.12-.45,.13-.91,.57-1.04Z"/>
        <path d="M1544.54,248.39c.71-.37,1.49-.65,2.3-.79,.81-.14,1.64-.16,2.53,.06,1.76,.43,3.03,1.71,3.89,2.97,1.74,2.58,2.54,5.44,3.14,8.27,1.2,5.65,1.2,11.5,.9,17.14-.3,5.59-.25,11.23-.45,16.89-.2,5.66-.55,11.35-1.33,17-1.56,11.29-4.63,22.42-9.11,32.91-4.48,10.5-10.14,20.44-16.45,29.91-.61,.92-1.85,1.17-2.77,.55-.92-.61-1.17-1.85-.55-2.77l.02-.04c6.33-9.2,12-18.86,16.52-29.04,4.52-10.18,7.65-20.94,9.33-31.95,.84-5.51,1.27-11.08,1.55-16.68,.28-5.6,.34-11.24,.69-16.91,.18-2.84,.34-5.56,.24-8.34-.09-2.76-.34-5.52-.86-8.21-.52-2.67-1.29-5.36-2.68-7.49-.69-1.06-1.6-1.88-2.6-2.15-.48-.13-1.09-.14-1.67-.05-.58,.09-1.15,.28-1.69,.56-.51,.26-1.13,.06-1.39-.45-.26-.5-.06-1.12,.44-1.38Z"/>
        <path d="M1523.03,381.74c-8.76,11.47-18.35,22.25-28.38,32.57-10.02,10.33-20.51,20.18-31.3,29.68-10.79,9.5-21.87,18.66-33.12,27.59,0,0-45.55,34.99-47.07,36.03l-2.35,1.53c-.79,.49-1.54,1.06-2.39,1.46-6.5,3.71-13.82,5.93-21.24,6.68-7.43,.75-14.99,0-22.11-2.16-7.13-2.17-13.84-5.77-19.45-10.63-1.4-1.22-2.82-2.42-4.07-3.8-1.25-1.38-2.55-2.71-3.68-4.08-2.3-2.76-4.64-5.49-6.93-8.25-4.58-5.53-9.11-11.12-13.54-16.78-8.85-11.32-17.21-23.04-25.1-35.04-.37-.56-.22-1.32,.34-1.69,.55-.36,1.29-.22,1.66,.32,8.12,11.76,16.79,23.14,25.77,34.26,4.49,5.56,9.08,11.05,13.73,16.49,2.32,2.72,4.7,5.4,7.03,8.11,1.18,1.38,2.4,2.58,3.57,3.84,1.17,1.27,2.5,2.37,3.81,3.48,5.24,4.45,11.48,7.72,18.09,9.65,6.6,1.93,13.58,2.54,20.4,1.78,6.82-.76,13.47-2.9,19.48-6.2,.78-.35,1.47-.88,2.2-1.33l2.17-1.38c1.45-.97,2.91-2.07,4.36-3.09l8.74-6.24c23.26-16.7,46.02-34.11,67.68-52.84,21.63-18.71,42.25-38.77,59.76-61.42v-.02c.42-.53,1.18-.62,1.7-.22,.52,.41,.62,1.16,.22,1.68Z"/>
        <path d="M1251.01,419.84c-.67,0-1.33-.34-1.7-.95-6.82-11.03-13.23-22.34-19.6-34.58-.51-.98-.13-2.19,.85-2.7,.98-.51,2.19-.13,2.7,.85,6.32,12.15,12.69,23.38,19.45,34.32,.58,.94,.29,2.17-.65,2.75-.33,.2-.69,.3-1.05,.3Z"/>
        <path d="M1176.45,252.76c-.95,0-1.79-.68-1.97-1.64-.98-5.35-1.67-10.93-2.1-17.06-.08-1.1,.75-2.06,1.85-2.14,1.12-.07,2.06,.75,2.14,1.85,.43,5.98,1.1,11.42,2.05,16.63,.2,1.09-.52,2.13-1.61,2.33-.12,.02-.24,.03-.36,.03Z"/>
        <path d="M1160.38,232.03c6.54,.36,13.12,.21,19.62-.57,6.5-.77,12.9-2.25,19.06-4.4,12.29-4.29,23.39-12.14,30.61-22.98,3.6-5.41,6.2-11.46,7.97-17.75,1.77-6.3,2.6-12.86,2.84-19.43l.11-2.47c0-.82-.01-1.65-.03-2.47-.03-1.65,0-3.3-.12-4.95-.22-3.29-.47-6.59-.89-9.87-.84-6.57-2.09-13.08-3.53-19.55v-.03c-.14-.59,.23-1.17,.82-1.3,.58-.13,1.16,.24,1.3,.82,1.52,6.53,2.87,13.1,3.8,19.76,.46,3.33,.75,6.68,1.02,10.04,.13,1.68,.13,3.37,.18,5.05,.02,.84,.06,1.68,.06,2.53l-.08,2.53c-.17,6.74-.95,13.52-2.72,20.1-1.76,6.56-4.42,12.94-8.15,18.7-7.48,11.53-19.18,19.99-31.98,24.61-6.41,2.32-13.06,3.93-19.79,4.81-6.73,.88-13.54,1.12-20.31,.82-1.1-.05-1.96-.98-1.91-2.09,.05-1.1,.98-1.96,2.09-1.91h.04Z"/>
        <path d="M1079.37,380.66c-.94,0-1.87-.02-2.81-.05-20.27-.76-38.96-9.41-52.62-24.37-13.67-14.96-20.62-34.34-19.56-54.58,1.14-21.88,11.65-41.95,28.91-55.36-7.94-12.19-10.8-26.55-8.07-40.63,2.57-13.26,9.83-24.54,20.48-31.9-4.82-31.17,5.31-67.24,25.99-92.28,12.92-15.64,36.05-34.47,72.83-35.32,7.06-.16,13.57-2.86,18.34-7.58,14.01-13.88,27.61-22.04,40.44-24.26,11.43-1.98,21.84,.92,30.09,8.38,19.2,17.34,23.43,58.04,.66,87.03,0,.84-.54,1.63-1.38,1.9-1.05,.34-2.18-.23-2.52-1.28-.04-.12-.08-.25-.12-.37-.03-.07-.05-.15-.07-.23-2.1-6.4-4.55-13.08-7.31-19.9-30.81,19.31-49.86,24.52-75.79,20.62,.76,33.49-3.72,51.63-28.43,57.39-.75,.18-1.54-.1-2.02-.71-.32-.4-8.06-9.87-17.18-3.74-4.08,2.74-6.22,7.74-5.71,13.37,.82,9.04,8.2,17.44,19.76,22.48,.55,.24,.96,.71,1.13,1.29,8.51,30.24,18.46,54.33,32.27,78.11,5.45,9.38,8.1,19.75,7.68,30-.03,.77-.08,1.56-.13,2.33-1.39,19.4-10.21,37.3-24.84,50.41-13.92,12.48-31.58,19.26-50,19.26ZM1210.19,17.64c-13.28,0-28.64,8.06-44.52,23.79-5.5,5.45-12.98,8.55-21.07,8.74-35.28,.82-57.45,18.87-69.84,33.87-20.25,24.52-30.04,59.98-24.92,90.34,.13,.78-.21,1.57-.88,2.01-10.33,6.74-17.37,17.41-19.82,30.04-2.64,13.63,.37,27.54,8.5,39.18,.62,.89,.42,2.11-.45,2.75-17.2,12.69-27.7,32.19-28.82,53.51-1,19.16,5.58,37.51,18.52,51.67,12.94,14.16,30.64,22.35,49.82,23.07,37.81,1.42,70.81-28.15,73.52-65.91,.05-.74,.1-1.48,.13-2.21,.39-9.49-2.08-19.11-7.14-27.83-13.85-23.84-23.86-47.98-32.41-78.13-12.6-5.75-20.33-14.96-21.28-25.4-.64-7.11,2.15-13.48,7.46-17.05,9.06-6.08,17.68-.76,21.69,3.59,19.54-5.01,25.2-18.26,24.1-55.51-.02-.6,.23-1.17,.69-1.57,.45-.39,1.05-.56,1.65-.46,26.6,4.49,45.41-.6,77.4-20.94,.5-.32,1.12-.4,1.68-.22,.56,.18,1.02,.6,1.25,1.15,2.65,6.45,5.05,12.79,7.14,18.91,19.56-27.11,15.53-63.64-1.87-79.36-5.96-5.38-12.89-8.04-20.51-8.04Z"/>
        <path d="M1022.11,664.56c-.46,0-.93-.16-1.3-.48l-.13-.11c-.83-.73-.9-2-.17-2.82,.2-.22,.43-.39,.69-.5,1.14-1.11,2.58-2.3,4.21-3.65,11.45-9.45,35.29-29.12,38.66-93.51,1.71-32.66-9.56-57.42-21.5-83.62-12.89-28.3-26.21-57.56-24.81-99.47,.04-1.1,.96-1.95,2.07-1.93,1.1,.04,1.97,.96,1.93,2.07-1.37,40.97,11.76,69.8,24.45,97.67,12.14,26.67,23.61,51.85,21.85,85.49-3.46,66.15-28.21,86.57-40.1,96.39-1.8,1.49-3.36,2.77-4.4,3.86-.39,.41-.92,.62-1.45,.62Z"/>
        <path d="M1011.91,653.52c-.62,0-1.23-.29-1.62-.82-7.02-9.65-10.29-20.12-9.71-31.11,.4-7.7,5.31-8.61,8.21-8.45,6.12,.32,8.93,5.89,12.18,12.34,2.26,4.47,4.81,9.53,8.89,13.75,.77,.79,.75,2.06-.05,2.83-.79,.77-2.06,.75-2.83-.05-4.5-4.65-7.2-10.01-9.58-14.73-3.21-6.35-5.2-9.96-8.82-10.14-1.81-.09-3.77,.18-4.01,4.66-.53,10.06,2.49,19.66,8.95,28.55,.65,.89,.45,2.14-.44,2.79-.35,.26-.77,.38-1.17,.38Z"/>
        <path d="M1035.6,652.56c-.56,0-1.11-.23-1.5-.68-10.48-11.94-15.25-25.49-13.8-39.16,.28-2.67,1.06-4.64,2.37-6.01,1.52-1.6,3.64-2.26,6.28-1.99,4.92,.52,7.5,4.48,9.56,8.68,.49,.99,.07,2.19-.92,2.67-.99,.48-2.19,.07-2.67-.92-2.15-4.39-3.94-6.2-6.38-6.46-1.82-.2-2.56,.34-2.96,.77-.67,.7-1.1,1.94-1.29,3.67-1.35,12.72,2.97,24.87,12.83,36.11,.73,.83,.65,2.09-.19,2.82-.38,.33-.85,.5-1.32,.5Z"/>
        <path d="M1047.1,638.01c-.73,0-1.44-.4-1.79-1.11-5.3-10.59-6.81-21.38-4.5-32.07,1.63-7.54,6.63-7.63,9.47-7.02,5.96,1.29,7.97,7.6,9.74,13.17,.34,1.05-.25,2.18-1.3,2.51-1.05,.33-2.18-.25-2.51-1.3-1.86-5.84-3.33-9.73-6.77-10.47-1.78-.38-3.76-.43-4.71,3.96-2.12,9.78-.72,19.68,4.17,29.44,.49,.99,.09,2.19-.89,2.68-.29,.14-.59,.21-.89,.21Z"/>
        <path d="M1017.54,456.19c-.55,0-1.09-.22-1.49-.66-.74-.82-.67-2.08,.15-2.83,3.52-3.17,7.47-6.39,12.29-10.27,.86-.69,2.12-.56,2.81,.3,.69,.86,.56,2.12-.3,2.81-4.76,3.84-8.68,7.03-12.12,10.13-.38,.34-.86,.51-1.34,.51Z"/>
        <path d="M1066.14,563.85c-.7,0-1.38-.37-1.74-1.02-.33-.59-.67-1.18-1.01-1.76-8.99-15.31-21.82-30.63-33.13-44.14-12.18-14.55-22.7-27.12-26.2-36.71-.38-1.04,.16-2.19,1.19-2.56,1.04-.38,2.19,.16,2.56,1.19,3.25,8.94,13.57,21.26,25.51,35.52,11.42,13.63,24.35,29.09,33.52,44.69,.35,.61,.7,1.21,1.05,1.82,.54,.96,.2,2.18-.76,2.72-.31,.17-.65,.26-.98,.26Z"/>
        <path d="M1251.44,420.54c-.5,0-1-.19-1.39-.56-.79-.77-.82-2.03-.05-2.83,30.26-31.32,61.79-54.41,82.92-68.26,.92-.61,2.16-.35,2.77,.58,.61,.92,.35,2.16-.58,2.77-20.96,13.74-52.23,36.64-82.23,67.69-.39,.41-.91,.61-1.44,.61Z"/>
        <path d="M954.55,389.35c20.47,22.1,41.19,43.97,63.49,64.09,1.02,.92,1.1,2.49,.18,3.51-.92,1.02-2.49,1.1-3.51,.18l-.03-.03c-22.16-20.65-42.61-42.92-62.75-65.36-.65-.73-.59-1.85,.14-2.5,.72-.65,1.83-.59,2.48,.12Z"/>
        <path d="M1202.6,187.73c-.88,0-1.69-.59-1.93-1.48-.29-1.07,.34-2.16,1.4-2.46,8.7-2.37,12.76-5.27,12.85-6.96-.15-.51-2-1.67-3.34-2.52-5.7-3.61-15.25-9.64-14.33-27.12,.36-6.88,2.79-13.97,7.02-20.5,.6-.93,1.84-1.19,2.77-.59,.93,.6,1.19,1.84,.59,2.77-3.85,5.94-6.06,12.35-6.38,18.54-.79,15.14,7.19,20.19,12.48,23.53,2.87,1.81,5.34,3.38,5.2,6.11-.28,5.29-8.74,8.69-15.79,10.61-.18,.05-.35,.07-.53,.07Z"/>
        <path d="M1159.67,148.3c-.48,0-.97-.18-1.36-.53-.81-.75-.86-2.01-.11-2.83,6.65-7.2,11.88-12.08,23.63-14.15,1.09-.19,2.13,.54,2.32,1.62,.19,1.09-.54,2.12-1.62,2.32-10.53,1.86-15.11,6.12-21.38,12.92-.39,.43-.93,.64-1.47,.64Z"/>
        <path d="M1391.82,517.54s-5.22,102.34-5.29,103.06c-.14,1.39-.46,2.76-.93,4.07-1.87,5.28-6.71,9.28-12.22,10.42-1.37,.28-2.78,.35-4.17,.32,0,0-222.59-11.36-223.28-11.44-.71-.08-1.41-.24-2.1-.42-5.55-1.4-10.09-5.93-11.75-11.43-.41-1.37-.66-2.79-.71-4.21-.05-1.49,.07-2.7,.13-3.98l5.83-114.43c.06-1.1,1-1.95,2.1-1.9,1.1,.06,1.95,1,1.9,2.1,0,0-6.32,117.02-6.28,118.07,.04,1.12,.23,2.22,.55,3.3,1.29,4.3,4.85,7.9,9.19,8.99,.54,.14,1.09,.27,1.65,.33,.57,.06,1.08,.13,1.75,.15l221.2,11.88c1.15,.02,2.3-.02,3.43-.26,4.51-.93,8.52-4.2,10.06-8.53,.38-1.08,.68-2.2,.77-3.35,.07-.55,.1-1.19,.14-1.83l5.43-101.06c.04-.73,.66-1.28,1.39-1.24,.73,.04,1.28,.66,1.25,1.38Z"/>
        <path d="M1140.21,474.61s-.07,0-.11,0c-1.1-.06-1.95-1-1.89-2.1l.42-8c.24-4.55,2.23-8.73,5.62-11.78,3.39-3.05,7.76-4.61,12.31-4.36l121.2,6.34c1.1,.06,1.95,1,1.89,2.1-.06,1.1-1.01,1.95-2.1,1.89l-121.2-6.34c-3.49-.17-6.83,1-9.42,3.34-2.59,2.33-4.12,5.54-4.3,9.02l-.42,8c-.06,1.07-.94,1.9-2,1.9Z"/>
        <path d="M1295.91,481.72s-.07,0-.11,0l-155.64-8.14c-1.1-.06-1.95-1-1.89-2.1,.06-1.1,1.01-1.96,2.1-1.89l155.64,8.14c1.1,.06,1.95,1,1.89,2.1-.06,1.07-.94,1.9-2,1.9Z"/>
        <g>
          <path d="M1305.09,532.75s-.07,0-.11,0l-16.91-.88c-1.1-.06-1.95-1-1.89-2.1,.06-1.1,1.01-1.96,2.1-1.89l16.91,.88c1.1,.06,1.95,1,1.89,2.1-.06,1.07-.94,1.9-2,1.9Z"/>
          <path d="M1352.27,535.22s-.07,0-.11,0l-29.49-1.54c-1.1-.06-1.95-1-1.89-2.1,.06-1.1,1.01-1.95,2.1-1.89l29.49,1.54c1.1,.06,1.95,1,1.89,2.1-.06,1.07-.94,1.9-2,1.9Z"/>
          <path d="M1351.36,552.5s-.07,0-.11,0l-64.09-3.35c-1.1-.06-1.95-1-1.89-2.1,.06-1.1,1-1.96,2.1-1.89l64.09,3.35c1.1,.06,1.95,1,1.89,2.1-.06,1.07-.94,1.9-2,1.9Z"/>
          <path d="M1307.21,567.53s-.07,0-.11,0l-20.84-1.09c-1.1-.06-1.95-1-1.89-2.1,.06-1.1,1-1.96,2.1-1.89l20.84,1.09c1.1,.06,1.95,1,1.89,2.1-.06,1.07-.94,1.9-2,1.9Z"/>
          <path d="M1350.46,569.79s-.07,0-.11,0l-31.06-1.62c-1.1-.06-1.95-1-1.89-2.1,.06-1.1,1-1.96,2.1-1.89l31.06,1.62c1.1,.06,1.95,1,1.89,2.1-.06,1.07-.94,1.9-2,1.9Z"/>
          <path d="M1325.57,585.82s-.07,0-.11,0l-40.1-2.1c-1.1-.06-1.95-1-1.89-2.1,.06-1.1,.99-1.96,2.1-1.89l40.1,2.1c1.1,.06,1.95,1,1.89,2.1-.06,1.07-.94,1.9-2,1.9Z"/>
        </g>
        <path d="M1349.43,168.76c-1.09,0-1.98-.87-2-1.96l-1.41-69.26c-.02-1.1,.86-2.02,1.96-2.04,.01,0,.03,0,.04,0,1.09,0,1.98,.87,2,1.96l1.37,67.26,12.19-.25c1.11-.02,2.02,.86,2.04,1.96,.02,1.1-.86,2.02-1.96,2.04,0,0-14.21,.29-14.23,.29Z"/>
        <path d="M1415.24,235.76c-1.09,0-1.98-.87-2-1.96l-1.35-66.31-26.69,.54c-1.11,.07-2.02-.85-2.04-1.96-.02-1.1,.85-2.02,1.96-2.04l28.69-.58c.52-.01,1.04,.19,1.43,.56,.38,.37,.6,.87,.62,1.4l1.35,66.31,40.25-.82-.75-37.14c-.02-1.1,.86-2.02,1.96-2.04,.01,0,.03,0,.04,0,1.09,0,1.98,.87,2,1.96l.79,39.14c.02,1.1-.86,2.02-1.96,2.04,0,0-44.27,.9-44.29,.9Z"/>
        <path d="M1458.23,172.71c-1.09,0-1.98-.87-2-1.96l-.98-48.4s-62.45,1.27-62.46,1.27c-1.09,0-1.98-.87-2-1.96l-1.35-66.31-40.25,.82,.37,18.09c.02,1.1-.86,2.02-1.96,2.04-.01,0-.03,0-.04,0-1.09,0-1.98-.87-2-1.96l-.41-20.09c-.02-1.1,.86-2.02,1.96-2.04,0,0,44.27-.9,44.29-.9,1.09,0,1.98,.87,2,1.96l1.35,66.31s62.45-1.27,62.46-1.27c1.09,0,1.98,.87,2,1.96l1.02,50.4c.02,1.1-.86,2.02-1.96,2.04-.01,0-.03,0-.04,0Z"/>
        <path d="M1347.75,85.44c-.47,0-.94-.22-1.23-.64-.48-.68-.31-1.61,.37-2.09,12.2-8.53,25.5-17.98,43.16-30.61,.67-.48,1.61-.33,2.09,.35,.48,.67,.33,1.61-.35,2.09-17.66,12.64-30.98,22.09-43.18,30.63-.26,.18-.56,.27-.86,.27Z"/>
        <path d="M1348.23,108.77c-.47,0-.93-.22-1.22-.63-.48-.68-.32-1.61,.35-2.09l43.63-31c.67-.48,1.61-.32,2.09,.35,.48,.68,.32,1.61-.35,2.09l-43.63,31c-.26,.19-.57,.28-.87,.28Z"/>
        <path d="M1348.71,132.56c-.47,0-.93-.22-1.22-.63-.48-.67-.33-1.61,.35-2.09,14.75-10.54,29.43-20.98,43.64-31.01,.67-.48,1.61-.32,2.09,.36,.48,.68,.32,1.61-.36,2.09-14.2,10.03-28.88,20.46-43.63,31-.26,.19-.57,.28-.87,.28Z"/>
        <path d="M1349.29,161.16c-.46,0-.92-.21-1.21-.61-.49-.67-.34-1.61,.32-2.1,14.47-10.6,51.01-38.19,51.01-38.19,.66-.5,1.6-.37,2.1,.29,.5,.66,.37,1.6-.29,2.1,0,0-36.55,27.6-51.04,38.21-.27,.2-.58,.29-.88,.29Z"/>
        <path d="M1373.11,167.78c-.47,0-.93-.22-1.23-.64-.48-.68-.32-1.61,.36-2.09l64.23-45.28c.68-.48,1.61-.32,2.09,.36,.48,.68,.32,1.61-.36,2.09l-64.23,45.27c-.26,.19-.56,.27-.86,.27Z"/>
        <path d="M1408.8,167.06c-.47,0-.94-.23-1.23-.64-.47-.68-.3-1.62,.38-2.09l48.64-33.74c.68-.47,1.62-.3,2.09,.38,.47,.68,.3,1.62-.38,2.09l-48.64,33.74c-.26,.18-.56,.27-.85,.27Z"/>
        <path d="M1414.3,188.71c-.47,0-.94-.22-1.23-.64-.48-.68-.31-1.61,.36-2.09,15.58-10.96,30.26-21.24,43.65-30.54,.68-.47,1.62-.31,2.09,.38,.47,.68,.3,1.61-.38,2.09-13.38,9.3-28.07,19.57-43.64,30.53-.26,.18-.56,.27-.86,.27Z"/>
        <path d="M1414.84,215.11c-.47,0-.93-.22-1.22-.63-.48-.68-.32-1.61,.36-2.09,16.19-11.49,30.46-21.68,43.62-31.15,.67-.48,1.61-.33,2.09,.34,.48,.67,.33,1.61-.34,2.09-13.17,9.47-27.44,19.67-43.64,31.16-.26,.19-.57,.28-.87,.28Z"/>
        <path d="M1423.14,235.1c-.47,0-.94-.22-1.23-.64-.48-.68-.31-1.61,.37-2.09l35.85-25.19c.68-.48,1.61-.31,2.09,.37,.48,.68,.31,1.61-.37,2.09l-35.85,25.19c-.26,.18-.56,.27-.86,.27Z"/>
        <g>
          <path class="cls-2" d="M1427.31,292.51c-.74,0-1.45-.41-1.79-1.11-.49-.99-.09-2.19,.9-2.68l1.65-.82c6.13-3.04,12.48-6.18,18.6-9.45,.98-.52,2.19-.15,2.71,.82,.52,.97,.15,2.19-.82,2.71-6.18,3.3-12.55,6.46-18.71,9.51l-1.65,.82c-.29,.14-.59,.21-.89,.21Z"/>
          <path class="cls-2" d="M1443.45,296.65c-.67,0-1.33-.34-1.71-.96l-12.45-20.43c-.57-.94-.28-2.17,.67-2.75,.94-.57,2.17-.28,2.75,.67l12.45,20.43c.57,.94,.28,2.17-.67,2.75-.33,.2-.68,.29-1.04,.29Z"/>
        </g>
        <g>
          <path class="cls-2" d="M1165.36,462.84c-.11,2.13-1.93,3.77-4.07,3.66-2.13-.11-3.77-1.93-3.66-4.07,.11-2.13,1.93-3.77,4.07-3.66,2.13,.11,3.77,1.93,3.66,4.07Z"/>
          <circle class="cls-2" cx="1180.51" cy="463.63" r="3.87"/>
          <circle class="cls-2" cx="1199.52" cy="464.63" r="3.87"/>
        </g>
        <path d="M1339.82,327.47c-.94,0-1.89-.02-2.84-.07-2.95-.15-5.9-.55-8.76-1.18-1.08-.24-1.76-1.3-1.53-2.38,.24-1.08,1.31-1.76,2.38-1.53,2.65,.58,5.38,.95,8.11,1.09,27.38,1.44,50.81-19.67,52.24-47.05,.69-13.26-3.82-26-12.7-35.86-8.89-9.87-21.08-15.68-34.34-16.38-3.5-.18-7.02,0-10.45,.55-1.08,.18-2.11-.57-2.29-1.66-.17-1.09,.57-2.12,1.66-2.29,3.71-.59,7.5-.79,11.28-.59,14.33,.75,27.5,7.03,37.11,17.69,9.6,10.66,14.48,24.42,13.73,38.75-1.5,28.62-25.26,50.91-53.6,50.91Z"/>
        <path d="M1288.17,278.89c-1.05,0-1.93-.82-1.99-1.88-.12-2-.13-4.04-.02-6.06,.61-11.72,4.91-22.66,12.41-31.63,.71-.85,1.97-.96,2.82-.25,.85,.71,.96,1.97,.25,2.82-6.95,8.31-10.92,18.43-11.49,29.27-.1,1.87-.09,3.76,.02,5.61,.07,1.1-.77,2.05-1.88,2.12-.04,0-.08,0-.12,0Z"/>
        <g>
          <path class="cls-2" d="M1359.76,292.42s-.09,0-.13,0l-41.28-2.16c-1.38-.07-2.44-1.25-2.37-2.63,.07-1.38,1.24-2.45,2.63-2.37l41.28,2.16c1.38,.07,2.44,1.25,2.37,2.63-.07,1.33-1.17,2.37-2.5,2.37Z"/>
          <path class="cls-2" d="M1354.01,279.8s-.09,0-.13,0l-28.5-1.49c-1.38-.07-2.44-1.25-2.37-2.63,.07-1.38,1.24-2.44,2.63-2.37l28.5,1.49c1.38,.07,2.44,1.25,2.37,2.63-.07,1.33-1.17,2.37-2.5,2.37Z"/>
          <path class="cls-2" d="M1348.47,267.19s-.09,0-.13,0l-16.13-.84c-1.38-.07-2.44-1.25-2.37-2.63,.07-1.38,1.24-2.44,2.63-2.37l16.13,.84c1.38,.07,2.44,1.25,2.37,2.63-.07,1.33-1.17,2.37-2.5,2.37Z"/>
          <path class="cls-2" d="M1342.92,254.58s-.09,0-.13,0l-3.75-.2c-1.38-.07-2.44-1.25-2.37-2.63,.07-1.38,1.24-2.45,2.63-2.37l3.75,.2c1.38,.07,2.44,1.25,2.37,2.63-.07,1.33-1.17,2.37-2.5,2.37Z"/>
        </g>
        <path class="cls-2" d="M1063.22,126.11c-.14,0-.29-.02-.43-.05-1.08-.24-1.76-1.31-1.52-2.38,7.47-33.76,32.17-57.24,67.76-64.42,1.09-.22,2.14,.48,2.36,1.57,.22,1.08-.48,2.14-1.57,2.36-33.97,6.85-57.53,29.21-64.64,61.36-.21,.93-1.03,1.57-1.95,1.57Z"/>
        <path class="cls-2" d="M1033.28,214.54s-.07,0-.11,0c-1.1-.06-1.95-1-1.89-2.1,.04-.71,.05-1.44,.07-2.18,.02-.79,.03-1.58,.07-2.37,.44-8.47,5.45-16.21,15.3-23.67,.88-.67,2.13-.49,2.8,.39,.67,.88,.49,2.14-.39,2.8-8.86,6.7-13.35,13.47-13.72,20.69-.04,.75-.05,1.5-.07,2.24-.02,.78-.03,1.55-.07,2.31-.06,1.07-.94,1.89-2,1.89Z"/>
        <path class="cls-2" d="M1018.45,292.04s-.07,0-.11,0c-1.1-.06-1.95-1-1.89-2.1,.04-.67,.15-3.39,.19-4.08,.54-10.41,3.53-18.59,16.75-27.2,.93-.6,2.16-.34,2.77,.58,.6,.93,.34,2.16-.58,2.77-11.84,7.72-14.44,14.67-14.93,24.06-.04,.67-.15,3.39-.19,4.08-.06,1.07-.94,1.9-2,1.9Z"/>
        <path class="cls-2" d="M1164.6,51.73c-.63,0-1.24-.29-1.63-.84-.64-.9-.43-2.15,.47-2.79,3.77-2.68,7.27-5.45,11.02-8.73,.83-.73,2.09-.65,2.82,.19,.73,.83,.64,2.09-.19,2.82-3.85,3.37-7.45,6.23-11.34,8.99-.35,.25-.76,.37-1.16,.37Z"/>
        <path class="cls-2" d="M1185.8,33.72c-.55,0-1.09-.22-1.49-.66-.74-.82-.67-2.09,.15-2.82,7.13-6.42,14.21-11.74,28.54-11.74,1.1,0,2,.89,2,2s-.89,2-2,2c-11.88,0-17.81,3.46-25.87,10.71-.38,.34-.86,.51-1.34,.51Z"/>
        <path d="M1429.93,605.06c1.03,.25,2.08,.42,3.15,.49,.54,.04,1.07,.02,1.61,.05,.54,.02,1.08,.02,1.62-.02l1.64-.09,1.65-.2c1.1-.1,2.21-.34,3.31-.54,1.11-.2,2.21-.47,3.31-.75,1.1-.28,2.2-.59,3.29-.92,2.18-.67,4.37-1.37,6.52-2.17,8.63-3.23,16.99-7.34,25.13-11.81,16.31-8.96,31.9-19.29,47.04-30.18,.73-.53,1.75-.36,2.28,.37s.37,1.75-.37,2.28c-7.6,5.5-15.31,10.84-23.17,15.97-7.86,5.13-15.84,10.08-24.04,14.7-8.19,4.62-16.58,8.95-25.4,12.51-4.41,1.78-8.91,3.45-13.66,4.43-1.19,.25-2.37,.53-3.6,.68l-1.83,.27-1.86,.15c-.62,.07-1.24,.08-1.88,.08-.63,0-1.27,.02-1.9,0-1.26-.05-2.53-.18-3.8-.37h-.02c-1.37-.21-2.31-1.48-2.11-2.85,.2-1.37,1.48-2.31,2.84-2.11,.07,.01,.15,.03,.22,.04Z"/>
        <path d="M1443.77,623.79c3.52,.31,7.06,.03,10.58-.42,3.52-.45,6.99-1.36,10.36-2.55,6.73-2.38,13.01-6.06,18.36-10.78,.68-.6,1.71-.53,2.3,.14,.59,.67,.53,1.7-.13,2.3-5.64,5.05-12.24,8.96-19.28,11.71-3.52,1.37-7.18,2.41-10.89,3.23-3.72,.83-7.53,1.15-11.37,1.36h-.01c-1.38,.08-2.57-.98-2.64-2.36s.98-2.57,2.37-2.64c.12,0,.25,0,.37,0Z"/>
        <path d="M1489.28,157.52c-.66,0-1.28-.32-1.65-.87-.4-.59-.46-1.35-.15-1.99,2.14-4.47,4.23-8.74,6.39-13.05l24.72-46.92c.31-.59,.9-.99,1.57-1.06,.67-.06,1.32,.2,1.75,.72,4.48,5.43,8.85,10.59,13.07,15.57,9.24,10.91,18.79,22.19,29.78,36.66,.44,.58,.53,1.34,.24,2-.29,.66-.91,1.12-1.63,1.2-9.97,1.05-18.41,2.03-26.56,2.99-15.45,1.81-28.79,3.36-47.37,4.75-.05,0-.1,0-.15,0Zm31.44-58.32s-26.53,50.73-28.14,54.06c16.73-1.32,29.32-2.79,43.75-4.47,7.19-.84,14.59-1.7,23.07-2.62-10.03-13.06-18.9-23.53-27.49-33.67-3.63-4.28-7.36-8.69-11.19-13.3Z"/>
      </g>
    </g>
  </g>
  <g id="caption">
    <g id="underline">
      <g class="cls-6">
        <path class="cls-5" d="M1923.14,834.13c-.98-3.41-2.05-6.84-2.94-10.3-.49-1.89,2.71-3.97,5.52-3.77,11.31,.78,24.32,1.17,63.86,1.31,58.88,.2,423.11-.02,431.24-.1,3.19-.03,6.39,.53,9.58,.51,4.68-.03,9.37-.42,14.05-.5,1.81-.03,3.63,.55,5.44,.5,4.15-.12,6.29-.26,27.13-1.46-3.19,16.46-2.07,12.51-3.01,17.07-.3,1.44-1.12,2.42-2.94,1.75-1.26-.46-16.02-.61-28.02-1.54-11.72-.91-10.16-2.56-31.1-2.84-3.44-.05-30.83-.07-30.83-.07-15.17-.14-30.29-.91-45.46-1.01-11.1-.07-22.24,.5-33.36,.78-12.5,.32,6.24,.29-73.15,.27-22.45,0-45.3,.85-67.23-.29-19.98-1.04-56.47,.03-172.33,.32-15.89,.04-65.15-.61-66.44-.61Z"/>
      </g>
      <g class="cls-6">
        <path class="cls-5" d="M326.34,821.87c-56.67-.01-130.49-.15-132.24-.2-3.49-.1-1.85-.2-5.01-.2-5.2,0-10.4,.27-15.6,.21-1.59-.02-3.49-.1-6.02-.2v11.37c4.93,.27,11.52,.71,17.14,.85,.37,0,1.07-.5,1.07-.76-.11-7.55,.31-10.49-3.87-10.53-4.81-.05-9.57-.53-14.34-1.16v11.83l2.64,.36c5.63,.79,6.72-.48,32.59-.47,.94,0,1.87,.32,2.81,.35h197.91c173.44,0-73.39,.3,222.48,.3h8.48v-12.91h-18.33c-1.35,0-2.57-.36-2.19,2.06,.32,2.07-.43,4.35-.88,6.5-.61,2.94-.15,3.61,2.94,3.61h18.46s0-11.45,0-11.45l-36.07,.07-271.98,.37Z"/>
      </g>
      <g class="cls-6">
        <path class="cls-5" d="M1473.52,819.17c.98,3.41,2.05,6.84,2.94,10.3,.49,1.89-2.71,3.97-5.52,3.77-11.31-.78-24.32-1.16-63.86-1.31-42.27-.16-308.35,.02-316.48,.1-3.19,.03-6.39-.53-9.58-.51-4.68,.03-9.37,.42-14.05,.5-1.81,.03-3.63-.55-5.44-.5-4.15,.12-6.29,.26-27.13,1.46,3.19-16.46,2.07-12.51,3.01-17.07,.3-1.44,1.12-2.42,2.94-1.75,1.26,.46,16.02,.61,28.02,1.54,11.72,.91,10.16,2.56,31.1,2.84,3.44,.05,26.51,.07,26.51,.07,10.89,.14,21.75,.91,32.64,1.01,7.97,.07,15.97-.5,23.95-.78,8.98-.32-4.48-.29,52.51-.27,16.12,0,32.52-.85,48.26,.29,14.34,1.04,40.54-.09,123.72-.32,15.89-.04,65.15,.61,66.44,.61Z"/>
      </g>
    </g>
    <g id="text">
      <g>
        <path d="M1896.09,791.91h15.3c3.73,0,7.05,.72,9.95,2.17,2.9,1.45,5.15,3.5,6.75,6.15,1.6,2.65,2.4,5.71,2.4,9.17s-.8,6.53-2.4,9.17c-1.6,2.65-3.85,4.7-6.75,6.15-2.9,1.45-6.22,2.17-9.95,2.17h-15.3v-35Zm15,29.5c2.57,0,4.82-.49,6.77-1.47,1.95-.98,3.45-2.38,4.5-4.2,1.05-1.82,1.57-3.92,1.57-6.33s-.52-4.51-1.57-6.33c-1.05-1.82-2.55-3.22-4.5-4.2-1.95-.98-4.21-1.47-6.77-1.47h-8.5v24h8.5Z"/>
        <path d="M1959.59,818.81h-17.5l-3.45,8.1h-6.7l15.75-35h6.4l15.8,35h-6.8l-3.5-8.1Zm-2.15-5.1l-6.6-15.3-6.55,15.3h13.15Z"/>
        <polygon points="1979.69 797.41 1968.09 797.41 1968.09 791.91 1997.79 791.91 1997.79 797.41 1986.19 797.41 1986.19 826.91 1979.69 826.91 1979.69 797.41"/>
        <path d="M2023.64,818.81h-17.5l-3.45,8.1h-6.7l15.75-35h6.4l15.8,35h-6.8l-3.5-8.1Zm-2.15-5.1l-6.6-15.3-6.55,15.3h13.15Z"/>
        <rect x="2052.19" y="791.91" width="6.5" height="35"/>
        <polygon points="2099.24 791.91 2099.24 826.91 2093.89 826.91 2074.59 803.21 2074.59 826.91 2068.14 826.91 2068.14 791.91 2073.49 791.91 2092.79 815.61 2092.79 791.91 2099.24 791.91"/>
        <polygon points="2115.73 797.41 2104.14 797.41 2104.14 791.91 2133.84 791.91 2133.84 797.41 2122.23 797.41 2122.23 826.91 2115.73 826.91 2115.73 797.41"/>
        <polygon points="2164.99 821.46 2164.99 826.91 2138.74 826.91 2138.74 791.91 2164.29 791.91 2164.29 797.36 2145.24 797.36 2145.24 806.46 2162.14 806.46 2162.14 811.81 2145.24 811.81 2145.24 821.46 2164.99 821.46"/>
        <path d="M2195.14,826.91l-7.15-10.25c-.3,.03-.75,.05-1.35,.05h-7.9v10.2h-6.5v-35h14.4c3.03,0,5.68,.5,7.93,1.5s3.97,2.43,5.17,4.3c1.2,1.87,1.8,4.08,1.8,6.65s-.64,4.9-1.92,6.8c-1.28,1.9-3.12,3.32-5.53,4.25l8.05,11.5h-7Zm-2.35-27.7c-1.47-1.2-3.62-1.8-6.45-1.8h-7.6v13.95h7.6c2.83,0,4.98-.61,6.45-1.83s2.2-2.94,2.2-5.17-.73-3.95-2.2-5.15Z"/>
        <path d="M2231.11,793.41c2.25,1,3.97,2.43,5.17,4.3,1.2,1.87,1.8,4.08,1.8,6.65s-.6,4.74-1.8,6.62c-1.2,1.88-2.92,3.33-5.17,4.33s-4.89,1.5-7.93,1.5h-7.9v10.1h-6.5v-35h14.4c3.03,0,5.68,.5,7.93,1.5Zm-1.78,16.1c1.47-1.2,2.2-2.92,2.2-5.15s-.73-3.95-2.2-5.15-3.62-1.8-6.45-1.8h-7.6v13.9h7.6c2.83,0,4.98-.6,6.45-1.8Z"/>
        <path d="M2267.48,826.91l-7.15-10.25c-.3,.03-.75,.05-1.35,.05h-7.9v10.2h-6.5v-35h14.4c3.03,0,5.68,.5,7.93,1.5s3.97,2.43,5.17,4.3c1.2,1.87,1.8,4.08,1.8,6.65s-.64,4.9-1.92,6.8c-1.28,1.9-3.12,3.32-5.53,4.25l8.05,11.5h-7Zm-2.35-27.7c-1.47-1.2-3.62-1.8-6.45-1.8h-7.6v13.95h7.6c2.83,0,4.98-.61,6.45-1.83s2.2-2.94,2.2-5.17-.73-3.95-2.2-5.15Z"/>
        <polygon points="2307.38 821.46 2307.38 826.91 2281.13 826.91 2281.13 791.91 2306.68 791.91 2306.68 797.36 2287.63 797.36 2287.63 806.46 2304.53 806.46 2304.53 811.81 2287.63 811.81 2287.63 821.46 2307.38 821.46"/>
        <polygon points="2321.73 797.41 2310.13 797.41 2310.13 791.91 2339.83 791.91 2339.83 797.41 2328.23 797.41 2328.23 826.91 2321.73 826.91 2321.73 797.41"/>
        <path d="M2365.68,818.81h-17.5l-3.45,8.1h-6.7l15.75-35h6.4l15.8,35h-6.8l-3.5-8.1Zm-2.15-5.1l-6.6-15.3-6.55,15.3h13.15Z"/>
        <polygon points="2385.78 797.41 2374.18 797.41 2374.18 791.91 2403.88 791.91 2403.88 797.41 2392.28 797.41 2392.28 826.91 2385.78 826.91 2385.78 797.41"/>
        <rect x="2408.78" y="791.91" width="6.5" height="35"/>
        <path d="M2431.43,825.08c-2.87-1.55-5.12-3.7-6.75-6.45-1.63-2.75-2.45-5.82-2.45-9.22s.82-6.47,2.45-9.22c1.63-2.75,3.88-4.9,6.75-6.45,2.87-1.55,6.08-2.33,9.65-2.33s6.78,.78,9.65,2.33c2.87,1.55,5.12,3.69,6.75,6.42,1.63,2.73,2.45,5.82,2.45,9.25s-.82,6.52-2.45,9.25c-1.63,2.73-3.88,4.88-6.75,6.42-2.87,1.55-6.08,2.33-9.65,2.33s-6.78-.78-9.65-2.33Zm15.95-4.95c1.87-1.05,3.33-2.52,4.4-4.4,1.07-1.88,1.6-3.99,1.6-6.33s-.53-4.44-1.6-6.33c-1.07-1.88-2.53-3.35-4.4-4.4-1.87-1.05-3.97-1.58-6.3-1.58s-4.43,.52-6.3,1.58c-1.87,1.05-3.33,2.52-4.4,4.4-1.07,1.88-1.6,3.99-1.6,6.33s.53,4.44,1.6,6.33c1.07,1.88,2.53,3.35,4.4,4.4,1.87,1.05,3.97,1.58,6.3,1.58s4.43-.52,6.3-1.58Z"/>
        <polygon points="2497.93 791.91 2497.93 826.91 2492.58 826.91 2473.28 803.21 2473.28 826.91 2466.83 826.91 2466.83 791.91 2472.18 791.91 2491.48 815.61 2491.48 791.91 2497.93 791.91"/>
      </g>
      <g>
        <path d="M155.7,789.37h15.3c3.73,0,7.05,.72,9.95,2.17,2.9,1.45,5.15,3.5,6.75,6.15,1.6,2.65,2.4,5.71,2.4,9.17s-.8,6.53-2.4,9.17c-1.6,2.65-3.85,4.7-6.75,6.15-2.9,1.45-6.22,2.17-9.95,2.17h-15.3v-35Zm15,29.5c2.57,0,4.83-.49,6.77-1.47,1.95-.98,3.45-2.38,4.5-4.2,1.05-1.82,1.58-3.92,1.58-6.33s-.52-4.51-1.58-6.33c-1.05-1.82-2.55-3.22-4.5-4.2-1.95-.98-4.21-1.47-6.77-1.47h-8.5v24h8.5Z"/>
        <path d="M219.2,816.27h-17.5l-3.45,8.1h-6.7l15.75-35h6.4l15.8,35h-6.8l-3.5-8.1Zm-2.15-5.1l-6.6-15.3-6.55,15.3h13.15Z"/>
        <polygon points="239.3 794.87 227.7 794.87 227.7 789.37 257.4 789.37 257.4 794.87 245.8 794.87 245.8 824.37 239.3 824.37 239.3 794.87"/>
        <path d="M283.25,816.27h-17.5l-3.45,8.1h-6.7l15.75-35h6.4l15.8,35h-6.8l-3.5-8.1Zm-2.15-5.1l-6.6-15.3-6.55,15.3h13.15Z"/>
        <path d="M334.12,790.87c2.25,1,3.97,2.43,5.17,4.3,1.2,1.87,1.8,4.08,1.8,6.65s-.6,4.74-1.8,6.62c-1.2,1.88-2.92,3.33-5.17,4.33s-4.89,1.5-7.93,1.5h-7.9v10.1h-6.5v-35h14.4c3.03,0,5.68,.5,7.93,1.5Zm-1.78,16.1c1.47-1.2,2.2-2.92,2.2-5.15s-.73-3.95-2.2-5.15c-1.47-1.2-3.62-1.8-6.45-1.8h-7.6v13.9h7.6c2.83,0,4.98-.6,6.45-1.8Z"/>
        <path d="M370.5,824.37l-7.15-10.25c-.3,.03-.75,.05-1.35,.05h-7.9v10.2h-6.5v-35h14.4c3.03,0,5.68,.5,7.93,1.5s3.97,2.43,5.17,4.3c1.2,1.87,1.8,4.08,1.8,6.65s-.64,4.9-1.92,6.8c-1.28,1.9-3.12,3.32-5.53,4.25l8.05,11.5h-7Zm-2.35-27.7c-1.47-1.2-3.62-1.8-6.45-1.8h-7.6v13.95h7.6c2.83,0,4.98-.61,6.45-1.83s2.2-2.94,2.2-5.17-.73-3.95-2.2-5.15Z"/>
        <path d="M390.85,822.54c-2.87-1.55-5.12-3.7-6.75-6.45-1.63-2.75-2.45-5.82-2.45-9.22s.82-6.47,2.45-9.22c1.63-2.75,3.88-4.9,6.75-6.45,2.87-1.55,6.08-2.33,9.65-2.33s6.78,.78,9.65,2.33c2.87,1.55,5.12,3.69,6.75,6.42,1.63,2.73,2.45,5.82,2.45,9.25s-.82,6.52-2.45,9.25c-1.63,2.73-3.88,4.88-6.75,6.42-2.87,1.55-6.08,2.33-9.65,2.33s-6.78-.78-9.65-2.33Zm15.95-4.95c1.87-1.05,3.33-2.52,4.4-4.4,1.07-1.88,1.6-3.99,1.6-6.33s-.53-4.44-1.6-6.33c-1.07-1.88-2.53-3.35-4.4-4.4-1.87-1.05-3.97-1.58-6.3-1.58s-4.43,.52-6.3,1.58c-1.87,1.05-3.33,2.52-4.4,4.4-1.07,1.88-1.6,3.99-1.6,6.33s.53,4.44,1.6,6.33c1.07,1.88,2.53,3.35,4.4,4.4,1.87,1.05,3.97,1.58,6.3,1.58s4.43-.52,6.3-1.58Z"/>
        <path d="M432.87,822.54c-2.85-1.55-5.08-3.69-6.7-6.42-1.62-2.73-2.42-5.82-2.42-9.25s.82-6.52,2.45-9.25c1.63-2.73,3.88-4.88,6.72-6.42s6.04-2.33,9.58-2.33c2.87,0,5.48,.5,7.85,1.5,2.37,1,4.37,2.45,6,4.35l-4.2,3.95c-2.53-2.73-5.65-4.1-9.35-4.1-2.4,0-4.55,.52-6.45,1.58-1.9,1.05-3.38,2.51-4.45,4.38s-1.6,3.98-1.6,6.35,.53,4.48,1.6,6.35c1.07,1.87,2.55,3.33,4.45,4.38,1.9,1.05,4.05,1.58,6.45,1.58,3.7,0,6.82-1.38,9.35-4.15l4.2,4c-1.63,1.9-3.64,3.35-6.02,4.35-2.38,1-5.01,1.5-7.88,1.5-3.53,0-6.73-.78-9.58-2.33Z"/>
        <polygon points="488.85 818.92 488.85 824.37 462.6 824.37 462.6 789.37 488.15 789.37 488.15 794.82 469.1 794.82 469.1 803.92 486 803.92 486 809.27 469.1 809.27 469.1 818.92 488.85 818.92"/>
        <path d="M499.12,823.72c-2.52-.77-4.51-1.78-5.97-3.05l2.25-5.05c1.43,1.13,3.19,2.06,5.28,2.78,2.08,.72,4.17,1.07,6.27,1.07,2.6,0,4.54-.42,5.83-1.25,1.28-.83,1.92-1.93,1.92-3.3,0-1-.36-1.83-1.08-2.47-.72-.65-1.62-1.16-2.72-1.53-1.1-.37-2.6-.78-4.5-1.25-2.67-.63-4.83-1.27-6.47-1.9-1.65-.63-3.07-1.62-4.25-2.98-1.18-1.35-1.78-3.17-1.78-5.47,0-1.93,.53-3.69,1.58-5.28,1.05-1.58,2.63-2.84,4.75-3.77,2.12-.93,4.71-1.4,7.77-1.4,2.13,0,4.23,.27,6.3,.8,2.07,.53,3.85,1.3,5.35,2.3l-2.05,5.05c-1.53-.9-3.13-1.58-4.8-2.05-1.67-.47-3.28-.7-4.85-.7-2.57,0-4.47,.43-5.72,1.3-1.25,.87-1.88,2.02-1.88,3.45,0,1,.36,1.82,1.08,2.45,.72,.63,1.62,1.13,2.72,1.5,1.1,.37,2.6,.78,4.5,1.25,2.6,.6,4.73,1.23,6.4,1.88,1.67,.65,3.09,1.64,4.27,2.98,1.18,1.33,1.78,3.13,1.78,5.4,0,1.93-.53,3.68-1.58,5.25-1.05,1.57-2.64,2.82-4.78,3.75-2.13,.93-4.73,1.4-7.8,1.4-2.7,0-5.31-.38-7.83-1.15Z"/>
        <path d="M530.57,823.72c-2.52-.77-4.51-1.78-5.97-3.05l2.25-5.05c1.43,1.13,3.19,2.06,5.28,2.78,2.08,.72,4.17,1.07,6.27,1.07,2.6,0,4.54-.42,5.83-1.25,1.28-.83,1.92-1.93,1.92-3.3,0-1-.36-1.83-1.08-2.47-.72-.65-1.62-1.16-2.72-1.53-1.1-.37-2.6-.78-4.5-1.25-2.67-.63-4.83-1.27-6.47-1.9-1.65-.63-3.07-1.62-4.25-2.98-1.18-1.35-1.78-3.17-1.78-5.47,0-1.93,.53-3.69,1.58-5.28,1.05-1.58,2.63-2.84,4.75-3.77,2.12-.93,4.71-1.4,7.77-1.4,2.13,0,4.23,.27,6.3,.8,2.07,.53,3.85,1.3,5.35,2.3l-2.05,5.05c-1.53-.9-3.13-1.58-4.8-2.05-1.67-.47-3.28-.7-4.85-.7-2.57,0-4.47,.43-5.72,1.3-1.25,.87-1.88,2.02-1.88,3.45,0,1,.36,1.82,1.08,2.45,.72,.63,1.62,1.13,2.72,1.5,1.1,.37,2.6,.78,4.5,1.25,2.6,.6,4.73,1.23,6.4,1.88,1.67,.65,3.09,1.64,4.27,2.98,1.18,1.33,1.78,3.13,1.78,5.4,0,1.93-.53,3.68-1.58,5.25-1.05,1.57-2.64,2.82-4.78,3.75-2.13,.93-4.73,1.4-7.8,1.4-2.7,0-5.31-.38-7.83-1.15Z"/>
        <rect x="559" y="789.37" width="6.5" height="35"/>
        <polygon points="606.05 789.37 606.05 824.37 600.7 824.37 581.4 800.67 581.4 824.37 574.95 824.37 574.95 789.37 580.3 789.37 599.6 813.07 599.6 789.37 606.05 789.37"/>
        <path d="M639.35,806.47h6.15v13.95c-1.8,1.43-3.9,2.53-6.3,3.3-2.4,.77-4.87,1.15-7.4,1.15-3.57,0-6.78-.78-9.65-2.33-2.87-1.55-5.12-3.69-6.75-6.42-1.63-2.73-2.45-5.82-2.45-9.25s.82-6.52,2.45-9.25c1.63-2.73,3.89-4.88,6.77-6.42,2.88-1.55,6.12-2.33,9.73-2.33,2.93,0,5.6,.48,8,1.45,2.4,.97,4.42,2.38,6.05,4.25l-4.1,4c-2.67-2.67-5.88-4-9.65-4-2.47,0-4.66,.52-6.58,1.55-1.92,1.03-3.42,2.48-4.5,4.35-1.08,1.87-1.62,4-1.62,6.4s.54,4.43,1.62,6.3c1.08,1.87,2.58,3.33,4.5,4.4,1.92,1.07,4.09,1.6,6.53,1.6,2.73,0,5.13-.6,7.2-1.8v-10.9Z"/>
      </g>
      <g>
        <path d="M1025.63,782.26h15.3c3.73,0,7.05,.72,9.95,2.17,2.9,1.45,5.15,3.5,6.75,6.15,1.6,2.65,2.4,5.71,2.4,9.17s-.8,6.53-2.4,9.17c-1.6,2.65-3.85,4.7-6.75,6.15-2.9,1.45-6.22,2.17-9.95,2.17h-15.3v-35Zm15,29.5c2.57,0,4.83-.49,6.77-1.47,1.95-.98,3.45-2.38,4.5-4.2,1.05-1.82,1.58-3.92,1.58-6.33s-.52-4.51-1.58-6.33c-1.05-1.82-2.55-3.22-4.5-4.2-1.95-.98-4.21-1.47-6.77-1.47h-8.5v24h8.5Z"/>
        <path d="M1089.13,809.16h-17.5l-3.45,8.1h-6.7l15.75-35h6.4l15.8,35h-6.8l-3.5-8.1Zm-2.15-5.1l-6.6-15.3-6.55,15.3h13.15Z"/>
        <polygon points="1109.23 787.76 1097.63 787.76 1097.63 782.26 1127.34 782.26 1127.34 787.76 1115.73 787.76 1115.73 817.26 1109.23 817.26 1109.23 787.76"/>
        <path d="M1153.18,809.16h-17.5l-3.45,8.1h-6.7l15.75-35h6.4l15.8,35h-6.8l-3.5-8.1Zm-2.15-5.1l-6.6-15.3-6.55,15.3h13.15Z"/>
        <path d="M1205.63,799.36h6.15v13.95c-1.8,1.43-3.9,2.53-6.3,3.3-2.4,.77-4.87,1.15-7.4,1.15-3.57,0-6.78-.78-9.65-2.33-2.87-1.55-5.12-3.69-6.75-6.42-1.63-2.73-2.45-5.82-2.45-9.25s.82-6.52,2.45-9.25c1.63-2.73,3.89-4.88,6.77-6.42,2.88-1.55,6.12-2.33,9.73-2.33,2.93,0,5.6,.48,8,1.45,2.4,.97,4.42,2.38,6.05,4.25l-4.1,4c-2.67-2.67-5.88-4-9.65-4-2.47,0-4.66,.52-6.58,1.55-1.92,1.03-3.42,2.48-4.5,4.35-1.08,1.87-1.62,4-1.62,6.4s.54,4.43,1.62,6.3c1.08,1.87,2.58,3.33,4.5,4.4,1.92,1.07,4.09,1.6,6.53,1.6,2.73,0,5.13-.6,7.2-1.8v-10.9Z"/>
        <path d="M1243.03,809.16h-17.5l-3.45,8.1h-6.7l15.75-35h6.4l15.8,35h-6.8l-3.5-8.1Zm-2.15-5.1l-6.6-15.3-6.55,15.3h13.15Z"/>
        <polygon points="1263.13 787.76 1251.53 787.76 1251.53 782.26 1281.23 782.26 1281.23 787.76 1269.63 787.76 1269.63 817.26 1263.13 817.26 1263.13 787.76"/>
        <polygon points="1317.23 782.26 1317.23 817.26 1310.73 817.26 1310.73 802.26 1292.63 802.26 1292.63 817.26 1286.13 817.26 1286.13 782.26 1292.63 782.26 1292.63 796.71 1310.73 796.71 1310.73 782.26 1317.23 782.26"/>
        <polygon points="1352.88 811.81 1352.88 817.26 1326.63 817.26 1326.63 782.26 1352.18 782.26 1352.18 787.71 1333.13 787.71 1333.13 796.81 1350.03 796.81 1350.03 802.16 1333.13 802.16 1333.13 811.81 1352.88 811.81"/>
        <path d="M1383.03,817.26l-7.15-10.25c-.3,.03-.75,.05-1.35,.05h-7.9v10.2h-6.5v-35h14.4c3.03,0,5.68,.5,7.93,1.5s3.97,2.43,5.17,4.3c1.2,1.87,1.8,4.08,1.8,6.65s-.64,4.9-1.92,6.8c-1.28,1.9-3.12,3.32-5.53,4.25l8.05,11.5h-7Zm-2.35-27.7c-1.47-1.2-3.62-1.8-6.45-1.8h-7.6v13.95h7.6c2.83,0,4.98-.61,6.45-1.83s2.2-2.94,2.2-5.17-.73-3.95-2.2-5.15Z"/>
        <rect x="1396.68" y="782.26" width="6.5" height="35"/>
        <polygon points="1443.73 782.26 1443.73 817.26 1438.38 817.26 1419.08 793.56 1419.08 817.26 1412.63 817.26 1412.63 782.26 1417.98 782.26 1437.28 805.96 1437.28 782.26 1443.73 782.26"/>
        <path d="M1477.03,799.36h6.15v13.95c-1.8,1.43-3.9,2.53-6.3,3.3-2.4,.77-4.87,1.15-7.4,1.15-3.57,0-6.78-.78-9.65-2.33-2.87-1.55-5.12-3.69-6.75-6.42-1.63-2.73-2.45-5.82-2.45-9.25s.82-6.52,2.45-9.25c1.63-2.73,3.89-4.88,6.77-6.42,2.88-1.55,6.12-2.33,9.73-2.33,2.93,0,5.6,.48,8,1.45,2.4,.97,4.42,2.38,6.05,4.25l-4.1,4c-2.67-2.67-5.88-4-9.65-4-2.47,0-4.66,.52-6.58,1.55-1.92,1.03-3.42,2.48-4.5,4.35-1.08,1.87-1.62,4-1.62,6.4s.54,4.43,1.62,6.3c1.08,1.87,2.58,3.33,4.5,4.4,1.92,1.07,4.09,1.6,6.53,1.6,2.73,0,5.13-.6,7.2-1.8v-10.9Z"/>
      </g>
    </g>
  </g>
</svg>